<svg xmlns="http://www.w3.org/2000/svg" xmlns:xlink="http://www.w3.org/1999/xlink" viewBox="0 0 310.21 203.06"><defs><style>.cls-1{fill:#fff;}.cls-2{fill:url(#Gradient_bez_nazwy_4);}.cls-3{fill:url(#Gradient_bez_nazwy_4-2);}.cls-4{fill:url(#Gradient_bez_nazwy_4-3);}.cls-5{fill:url(#Gradient_bez_nazwy_4-4);}.cls-6{fill:url(#Gradient_bez_nazwy_4-5);}.cls-7{fill:url(#Gradient_bez_nazwy_4-6);}.cls-8{fill:url(#Gradient_bez_nazwy_4-7);}.cls-9{fill:url(#Gradient_bez_nazwy_4-8);}.cls-10{fill:url(#Gradient_bez_nazwy_4-9);}.cls-11{fill:url(#Gradient_bez_nazwy_4-10);}.cls-12{fill:url(#Gradient_bez_nazwy_4-11);}.cls-13{fill:url(#Gradient_bez_nazwy_4-12);}.cls-14{fill:url(#Gradient_bez_nazwy_4-13);}.cls-15{fill:url(#Gradient_bez_nazwy_4-14);}.cls-16{fill:url(#Gradient_bez_nazwy_4-15);}.cls-17{fill:url(#Gradient_bez_nazwy_4-16);}.cls-18{fill:url(#Gradient_bez_nazwy_4-17);}.cls-19{fill:url(#Gradient_bez_nazwy_4-18);}.cls-20{fill:url(#Gradient_bez_nazwy_4-19);}.cls-21{fill:url(#Gradient_bez_nazwy_4-20);}.cls-22{fill:url(#Gradient_bez_nazwy_4-21);}.cls-23{fill:url(#Gradient_bez_nazwy_4-22);}.cls-24{fill:url(#Gradient_bez_nazwy_4-23);}.cls-25{fill:url(#Gradient_bez_nazwy_4-24);}.cls-26{fill:url(#Gradient_bez_nazwy_4-25);}.cls-27{fill:url(#Gradient_bez_nazwy_4-26);}.cls-28{fill:url(#Gradient_bez_nazwy_4-27);}.cls-29{fill:url(#Gradient_bez_nazwy_4-28);}.cls-30{fill:url(#Gradient_bez_nazwy_4-29);}.cls-31{fill:url(#Gradient_bez_nazwy_4-30);}.cls-32{fill:url(#Gradient_bez_nazwy_4-31);}.cls-33{fill:url(#Gradient_bez_nazwy_4-32);}.cls-34{fill:url(#Gradient_bez_nazwy_4-33);}.cls-35{fill:url(#Gradient_bez_nazwy_4-34);}.cls-36{fill:url(#Gradient_bez_nazwy_4-35);}.cls-37{fill:url(#Gradient_bez_nazwy_4-36);}.cls-38{fill:url(#Gradient_bez_nazwy_4-37);}.cls-39{fill:url(#Gradient_bez_nazwy_4-38);}.cls-40{fill:url(#Gradient_bez_nazwy_4-39);}.cls-41{fill:url(#Gradient_bez_nazwy_4-40);}.cls-42{fill:url(#Gradient_bez_nazwy_4-41);}.cls-43{fill:url(#Gradient_bez_nazwy_4-42);}.cls-44{fill:url(#Gradient_bez_nazwy_4-43);}.cls-45{fill:url(#Gradient_bez_nazwy_4-44);}.cls-46{fill:url(#Gradient_bez_nazwy_4-45);}.cls-47{fill:url(#Gradient_bez_nazwy_4-46);}.cls-48{fill:url(#Gradient_bez_nazwy_4-47);}.cls-49{fill:url(#Gradient_bez_nazwy_4-48);}.cls-50{fill:url(#Gradient_bez_nazwy_4-49);}.cls-51{fill:url(#Gradient_bez_nazwy_4-50);}.cls-52{fill:url(#Gradient_bez_nazwy_4-51);}.cls-53{fill:url(#Gradient_bez_nazwy_4-52);}.cls-54{fill:url(#Gradient_bez_nazwy_4-53);}.cls-55{fill:url(#Gradient_bez_nazwy_4-54);}.cls-56{fill:url(#Gradient_bez_nazwy_4-55);}.cls-57{fill:#c175cd;}.cls-58{fill:#9a3ab0;}.cls-59{fill:#9e3db5;}</style><linearGradient id="Gradient_bez_nazwy_4" x1="74.84" y1="170.01" x2="74.84" y2="67.41" gradientUnits="userSpaceOnUse"><stop offset="0" stop-color="#401381"/><stop offset="1" stop-color="#d11137"/></linearGradient><linearGradient id="Gradient_bez_nazwy_4-2" x1="217.66" y1="170.01" x2="217.66" y2="67.41" xlink:href="#Gradient_bez_nazwy_4"/><linearGradient id="Gradient_bez_nazwy_4-3" x1="17.88" y1="170.01" x2="17.88" y2="67.41" xlink:href="#Gradient_bez_nazwy_4"/><linearGradient id="Gradient_bez_nazwy_4-4" x1="17.88" y1="160.16" x2="17.88" y2="-3.38" xlink:href="#Gradient_bez_nazwy_4"/><linearGradient id="Gradient_bez_nazwy_4-5" x1="11.98" y1="170.01" x2="11.98" y2="67.41" xlink:href="#Gradient_bez_nazwy_4"/><linearGradient id="Gradient_bez_nazwy_4-6" x1="11.98" y1="160.16" x2="11.98" y2="-3.38" xlink:href="#Gradient_bez_nazwy_4"/><linearGradient id="Gradient_bez_nazwy_4-7" x1="76.92" y1="170.01" x2="76.92" y2="67.41" xlink:href="#Gradient_bez_nazwy_4"/><linearGradient id="Gradient_bez_nazwy_4-8" x1="76.92" y1="160.16" x2="76.92" y2="-3.38" xlink:href="#Gradient_bez_nazwy_4"/><linearGradient id="Gradient_bez_nazwy_4-9" x1="78.15" y1="170.01" x2="78.15" y2="67.41" xlink:href="#Gradient_bez_nazwy_4"/><linearGradient id="Gradient_bez_nazwy_4-10" x1="78.15" y1="160.16" x2="78.15" y2="-3.38" xlink:href="#Gradient_bez_nazwy_4"/><linearGradient id="Gradient_bez_nazwy_4-11" x1="138.82" y1="170.01" x2="138.82" y2="67.41" xlink:href="#Gradient_bez_nazwy_4"/><linearGradient id="Gradient_bez_nazwy_4-12" x1="138.82" y1="160.16" x2="138.82" y2="-3.38" xlink:href="#Gradient_bez_nazwy_4"/><linearGradient id="Gradient_bez_nazwy_4-13" x1="283.82" y1="170.01" x2="283.82" y2="67.41" xlink:href="#Gradient_bez_nazwy_4"/><linearGradient id="Gradient_bez_nazwy_4-14" x1="283.82" y1="160.16" x2="283.82" y2="-3.38" xlink:href="#Gradient_bez_nazwy_4"/><linearGradient id="Gradient_bez_nazwy_4-15" x1="75.65" y1="170.01" x2="75.65" y2="67.41" xlink:href="#Gradient_bez_nazwy_4"/><linearGradient id="Gradient_bez_nazwy_4-16" x1="75.65" y1="160.16" x2="75.65" y2="-3.38" xlink:href="#Gradient_bez_nazwy_4"/><linearGradient id="Gradient_bez_nazwy_4-17" x1="189.86" y1="170.01" x2="189.86" y2="67.41" xlink:href="#Gradient_bez_nazwy_4"/><linearGradient id="Gradient_bez_nazwy_4-18" x1="189.86" y1="160.16" x2="189.86" y2="-3.38" xlink:href="#Gradient_bez_nazwy_4"/><linearGradient id="Gradient_bez_nazwy_4-19" x1="140.37" y1="170.01" x2="140.37" y2="67.41" xlink:href="#Gradient_bez_nazwy_4"/><linearGradient id="Gradient_bez_nazwy_4-20" x1="140.37" y1="160.16" x2="140.37" y2="-3.38" xlink:href="#Gradient_bez_nazwy_4"/><linearGradient id="Gradient_bez_nazwy_4-21" x1="20.85" y1="170.01" x2="20.85" y2="67.41" xlink:href="#Gradient_bez_nazwy_4"/><linearGradient id="Gradient_bez_nazwy_4-22" x1="20.85" y1="160.16" x2="20.85" y2="-3.38" xlink:href="#Gradient_bez_nazwy_4"/><linearGradient id="Gradient_bez_nazwy_4-23" x1="72.83" y1="170.01" x2="72.83" y2="67.41" xlink:href="#Gradient_bez_nazwy_4"/><linearGradient id="Gradient_bez_nazwy_4-24" x1="72.83" y1="160.16" x2="72.83" y2="-3.38" xlink:href="#Gradient_bez_nazwy_4"/><linearGradient id="Gradient_bez_nazwy_4-25" x1="72.16" y1="170.01" x2="72.16" y2="67.41" xlink:href="#Gradient_bez_nazwy_4"/><linearGradient id="Gradient_bez_nazwy_4-26" x1="72.16" y1="160.16" x2="72.16" y2="-3.38" xlink:href="#Gradient_bez_nazwy_4"/><linearGradient id="Gradient_bez_nazwy_4-27" x1="26.73" y1="170.01" x2="26.73" y2="67.41" xlink:href="#Gradient_bez_nazwy_4"/><linearGradient id="Gradient_bez_nazwy_4-28" x1="26.73" y1="160.16" x2="26.73" y2="-3.38" xlink:href="#Gradient_bez_nazwy_4"/><linearGradient id="Gradient_bez_nazwy_4-29" x1="263.93" y1="170.01" x2="263.93" y2="67.41" xlink:href="#Gradient_bez_nazwy_4"/><linearGradient id="Gradient_bez_nazwy_4-30" x1="263.93" y1="160.16" x2="263.93" y2="-3.38" xlink:href="#Gradient_bez_nazwy_4"/><linearGradient id="Gradient_bez_nazwy_4-31" x1="263.93" y1="105.63" x2="263.93" y2="-32.75" xlink:href="#Gradient_bez_nazwy_4"/><linearGradient id="Gradient_bez_nazwy_4-32" x1="261.44" y1="170.01" x2="261.44" y2="67.41" xlink:href="#Gradient_bez_nazwy_4"/><linearGradient id="Gradient_bez_nazwy_4-33" x1="261.44" y1="160.16" x2="261.44" y2="-3.38" xlink:href="#Gradient_bez_nazwy_4"/><linearGradient id="Gradient_bez_nazwy_4-34" x1="261.44" y1="105.63" x2="261.44" y2="-32.75" xlink:href="#Gradient_bez_nazwy_4"/><linearGradient id="Gradient_bez_nazwy_4-35" x1="266.4" y1="170.01" x2="266.4" y2="67.41" xlink:href="#Gradient_bez_nazwy_4"/><linearGradient id="Gradient_bez_nazwy_4-36" x1="266.4" y1="160.16" x2="266.4" y2="-3.38" xlink:href="#Gradient_bez_nazwy_4"/><linearGradient id="Gradient_bez_nazwy_4-37" x1="266.4" y1="105.63" x2="266.4" y2="-32.75" xlink:href="#Gradient_bez_nazwy_4"/><linearGradient id="Gradient_bez_nazwy_4-38" x1="143.89" y1="170.01" x2="143.89" y2="67.41" xlink:href="#Gradient_bez_nazwy_4"/><linearGradient id="Gradient_bez_nazwy_4-39" x1="143.89" y1="160.16" x2="143.89" y2="-3.38" xlink:href="#Gradient_bez_nazwy_4"/><linearGradient id="Gradient_bez_nazwy_4-40" x1="143.89" y1="105.63" x2="143.89" y2="-32.75" xlink:href="#Gradient_bez_nazwy_4"/><linearGradient id="Gradient_bez_nazwy_4-41" x1="142.43" y1="170.01" x2="142.43" y2="67.41" xlink:href="#Gradient_bez_nazwy_4"/><linearGradient id="Gradient_bez_nazwy_4-42" x1="142.43" y1="160.16" x2="142.43" y2="-3.38" xlink:href="#Gradient_bez_nazwy_4"/><linearGradient id="Gradient_bez_nazwy_4-43" x1="142.43" y1="105.63" x2="142.43" y2="-32.75" xlink:href="#Gradient_bez_nazwy_4"/><linearGradient id="Gradient_bez_nazwy_4-44" x1="138.3" y1="170.01" x2="138.3" y2="67.41" xlink:href="#Gradient_bez_nazwy_4"/><linearGradient id="Gradient_bez_nazwy_4-45" x1="138.3" y1="160.16" x2="138.3" y2="-3.38" xlink:href="#Gradient_bez_nazwy_4"/><linearGradient id="Gradient_bez_nazwy_4-46" x1="138.3" y1="105.63" x2="138.3" y2="-32.75" xlink:href="#Gradient_bez_nazwy_4"/><linearGradient id="Gradient_bez_nazwy_4-47" x1="222.05" y1="170.01" x2="222.05" y2="67.41" xlink:href="#Gradient_bez_nazwy_4"/><linearGradient id="Gradient_bez_nazwy_4-48" x1="222.05" y1="160.16" x2="222.05" y2="-3.38" xlink:href="#Gradient_bez_nazwy_4"/><linearGradient id="Gradient_bez_nazwy_4-49" x1="222.05" y1="105.63" x2="222.05" y2="-32.75" xlink:href="#Gradient_bez_nazwy_4"/><linearGradient id="Gradient_bez_nazwy_4-50" x1="149.3" y1="170.01" x2="149.3" y2="67.41" xlink:href="#Gradient_bez_nazwy_4"/><linearGradient id="Gradient_bez_nazwy_4-51" x1="149.3" y1="160.16" x2="149.3" y2="-3.38" xlink:href="#Gradient_bez_nazwy_4"/><linearGradient id="Gradient_bez_nazwy_4-52" x1="149.3" y1="105.63" x2="149.3" y2="-32.75" xlink:href="#Gradient_bez_nazwy_4"/><linearGradient id="Gradient_bez_nazwy_4-53" x1="127.11" y1="170.01" x2="127.11" y2="67.41" xlink:href="#Gradient_bez_nazwy_4"/><linearGradient id="Gradient_bez_nazwy_4-54" x1="127.11" y1="160.16" x2="127.11" y2="-3.38" xlink:href="#Gradient_bez_nazwy_4"/><linearGradient id="Gradient_bez_nazwy_4-55" x1="127.11" y1="105.63" x2="127.11" y2="-32.75" xlink:href="#Gradient_bez_nazwy_4"/></defs><title>Asset 20</title><g id="Layer_2" data-name="Layer 2"><g id="Designed_by_Freepik" data-name="Designed by Freepik"><path class="cls-1" d="M126.14,90.25h0l-12-1.85,1.86-12,6.72,1c-3.59-17.91-9.62-28.92-18.43-33.58a25.38,25.38,0,0,0-13.7-2.57l-14,4.09-.31-1.07c-6.47,2.1-13.15,5-19.75,7.86C45.4,57,33.86,62,23.55,63.07a90.17,90.17,0,0,0,16.92,6.26C65.11,76,109.43,55.86,113.74,91l.4-2.6Z"/><path class="cls-2" d="M126.14,90.25h0l-12-1.85,1.86-12,6.72,1c-3.59-17.91-9.62-28.92-18.43-33.58a25.38,25.38,0,0,0-13.7-2.57l-14,4.09-.31-1.07c-6.47,2.1-13.15,5-19.75,7.86C45.4,57,33.86,62,23.55,63.07a90.17,90.17,0,0,0,16.92,6.26C65.11,76,109.43,55.86,113.74,91l.4-2.6Z"/><path class="cls-1" d="M289.72,99.79l-.41-.32c1.23,1.61,2.51,3.22,3.82,4.83l-36.3,7.63-3.25-15.46c-6.56,3.44-14.5,8.71-24.54,16.29C207.7,128.88,181,133.7,159.32,125.34c-.88-.34-1.75-.71-2.6-1.09l-4.81,31-26.81-4.15c13.52,13.54,35.82,18.22,57.61,11.38,50.7-15.92,42,.53,64.09,26.31,14.57,17,45.66,23.87,63.41-9V126.53C304.38,116.87,296.32,108.38,289.72,99.79Z"/><path class="cls-3" d="M289.72,99.79l-.41-.32c1.23,1.61,2.51,3.22,3.82,4.83l-36.3,7.63-3.25-15.46c-6.56,3.44-14.5,8.71-24.54,16.29C207.7,128.88,181,133.7,159.32,125.34c-.88-.34-1.75-.71-2.6-1.09l-4.81,31-26.81-4.15c13.52,13.54,35.82,18.22,57.61,11.38,50.7-15.92,42,.53,64.09,26.31,14.57,17,45.66,23.87,63.41-9V126.53C304.38,116.87,296.32,108.38,289.72,99.79Z"/><path class="cls-1" d="M15.25,11.88l.67-1.49a1.33,1.33,0,0,0-1,2.45L19.78,15a1.33,1.33,0,0,0,1.1-2.43l-.11,0-.68,1.49Z"/><path class="cls-4" d="M15.25,11.88l.67-1.49a1.33,1.33,0,0,0-1,2.45L19.78,15a1.33,1.33,0,0,0,1.1-2.43l-.11,0-.68,1.49Z"/><path class="cls-5" d="M15.25,11.88l.67-1.49a1.33,1.33,0,0,0-1,2.45L19.78,15a1.33,1.33,0,0,0,1.1-2.43l-.11,0-.68,1.49Z"/><path class="cls-1" d="M1.57,10.35h0L4.91,3l11.9,5.38,1-2.19-.93-.45s-1.34-.89,0-2.28a4.56,4.56,0,0,1,4.58-1.27L22.59.16,22.25,0H3.44C2.6,3.74,1.9,7.35,1.36,10.8Z"/><path class="cls-6" d="M1.57,10.35h0L4.91,3l11.9,5.38,1-2.19-.93-.45s-1.34-.89,0-2.28a4.56,4.56,0,0,1,4.58-1.27L22.59.16,22.25,0H3.44C2.6,3.74,1.9,7.35,1.36,10.8Z"/><path class="cls-7" d="M1.57,10.35h0L4.91,3l11.9,5.38,1-2.19-.93-.45s-1.34-.89,0-2.28a4.56,4.56,0,0,1,4.58-1.27L22.59.16,22.25,0H3.44C2.6,3.74,1.9,7.35,1.36,10.8Z"/><path class="cls-1" d="M76.32,14.92l1.5-.44a.49.49,0,0,1,.61.34l0,.06.25-.08a.31.31,0,0,0,.14-.47c-.88-1.17-1.7-.8-1.7-.8a.7.7,0,0,1-.44.53h-.08a.7.7,0,0,1-.65-.22s-.89.11-1,1.57c0,0,0,.38.36.33l.38-.09A.91.91,0,0,1,76.32,14.92Z"/><path class="cls-8" d="M76.32,14.92l1.5-.44a.49.49,0,0,1,.61.34l0,.06.25-.08a.31.31,0,0,0,.14-.47c-.88-1.17-1.7-.8-1.7-.8a.7.7,0,0,1-.44.53h-.08a.7.7,0,0,1-.65-.22s-.89.11-1,1.57c0,0,0,.38.36.33l.38-.09A.91.91,0,0,1,76.32,14.92Z"/><path class="cls-9" d="M76.32,14.92l1.5-.44a.49.49,0,0,1,.61.34l0,.06.25-.08a.31.31,0,0,0,.14-.47c-.88-1.17-1.7-.8-1.7-.8a.7.7,0,0,1-.44.53h-.08a.7.7,0,0,1-.65-.22s-.89.11-1,1.57c0,0,0,.38.36.33l.38-.09A.91.91,0,0,1,76.32,14.92Z"/><path class="cls-1" d="M76,19.6h0a.75.75,0,0,0,.92.51l2.89-.84a.75.75,0,1,0-.42-1.43l-.06,0,.26.88-2.86.84-.26-.87A.74.74,0,0,0,76,19.6Z"/><path class="cls-10" d="M76,19.6h0a.75.75,0,0,0,.92.51l2.89-.84a.75.75,0,1,0-.42-1.43l-.06,0,.26.88-2.86.84-.26-.87A.74.74,0,0,0,76,19.6Z"/><path class="cls-11" d="M76,19.6h0a.75.75,0,0,0,.92.51l2.89-.84a.75.75,0,1,0-.42-1.43l-.06,0,.26.88-2.86.84-.26-.87A.74.74,0,0,0,76,19.6Z"/><path class="cls-1" d="M134.65,85.08l.38-2.44a2,2,0,0,0-2.2,1.68h0a2,2,0,0,0,1.68,2.29l8,1.24a2,2,0,0,0,.62-4l-.17,0-.38,2.45Z"/><path class="cls-12" d="M134.65,85.08l.38-2.44a2,2,0,0,0-2.2,1.68h0a2,2,0,0,0,1.68,2.29l8,1.24a2,2,0,0,0,.62-4l-.17,0-.38,2.45Z"/><path class="cls-13" d="M134.65,85.08l.38-2.44a2,2,0,0,0-2.2,1.68h0a2,2,0,0,0,1.68,2.29l8,1.24a2,2,0,0,0,.62-4l-.17,0-.38,2.45Z"/><path class="cls-1" d="M278.68,79.32a36.77,36.77,0,0,0,2.5,7.23c.35.77.74,1.53,1.14,2.29q.74,1.41,1.58,2.8c.43.71.87,1.41,1.33,2.11,1.26,1.93,2.63,3.83,4.08,5.73l.41.32C281.38,88.93,275.4,77.88,279.3,64l-.13-.11A30.36,30.36,0,0,0,278.68,79.32Z"/><path class="cls-14" d="M278.68,79.32a36.77,36.77,0,0,0,2.5,7.23c.35.77.74,1.53,1.14,2.29q.74,1.41,1.58,2.8c.43.71.87,1.41,1.33,2.11,1.26,1.93,2.63,3.83,4.08,5.73l.41.32C281.38,88.93,275.4,77.88,279.3,64l-.13-.11A30.36,30.36,0,0,0,278.68,79.32Z"/><path class="cls-15" d="M278.68,79.32a36.77,36.77,0,0,0,2.5,7.23c.35.77.74,1.53,1.14,2.29q.74,1.41,1.58,2.8c.43.71.87,1.41,1.33,2.11,1.26,1.93,2.63,3.83,4.08,5.73l.41.32C281.38,88.93,275.4,77.88,279.3,64l-.13-.11A30.36,30.36,0,0,0,278.68,79.32Z"/><path class="cls-1" d="M73.16,10.56A.54.54,0,0,0,73,11l.11.36a.49.49,0,0,0,.22.28h0a.78.78,0,0,0,.57.08l1.46-.35a.87.87,0,0,1,.36-.46h.08a.87.87,0,0,1,.55.2l1.43-.46a.78.78,0,0,0,.45-.36h0a.49.49,0,0,0,0-.36l-.09-.36a.54.54,0,0,0-.38-.32.63.63,0,0,0-.32,0l-.32.09,0,0-3.34,1v0h-.05l-.3.09A.63.63,0,0,0,73.16,10.56Z"/><path class="cls-16" d="M73.16,10.56A.54.54,0,0,0,73,11l.11.36a.49.49,0,0,0,.22.28h0a.78.78,0,0,0,.57.08l1.46-.35a.87.87,0,0,1,.36-.46h.08a.87.87,0,0,1,.55.2l1.43-.46a.78.78,0,0,0,.45-.36h0a.49.49,0,0,0,0-.36l-.09-.36a.54.54,0,0,0-.38-.32.63.63,0,0,0-.32,0l-.32.09,0,0-3.34,1v0h-.05l-.3.09A.63.63,0,0,0,73.16,10.56Z"/><path class="cls-17" d="M73.16,10.56A.54.54,0,0,0,73,11l.11.36a.49.49,0,0,0,.22.28h0a.78.78,0,0,0,.57.08l1.46-.35a.87.87,0,0,1,.36-.46h.08a.87.87,0,0,1,.55.2l1.43-.46a.78.78,0,0,0,.45-.36h0a.49.49,0,0,0,0-.36l-.09-.36a.54.54,0,0,0-.38-.32.63.63,0,0,0-.32,0l-.32.09,0,0-3.34,1v0h-.05l-.3.09A.63.63,0,0,0,73.16,10.56Z"/><path class="cls-1" d="M145.42,77.35,144,77.14l-.54,3.51,19.59,3-1.86,12-35.06-5.43h0l35,5.43-4.43,28.58c.86.38,1.72.75,2.6,1.09C181,133.7,207.7,128.88,229,112.77c10-7.58,18-12.85,24.54-16.29l-7.33-34.86a205.81,205.81,0,0,0-23.93,11.95C199,86.73,171.93,88,151.56,76.86c-1.46-.8-2.87-1.66-4.24-2.57,0,.08,0,.15.06.23C147.84,77.38,145.42,77.35,145.42,77.35Z"/><path class="cls-18" d="M145.42,77.35,144,77.14l-.54,3.51,19.59,3-1.86,12-35.06-5.43h0l35,5.43-4.43,28.58c.86.38,1.72.75,2.6,1.09C181,133.7,207.7,128.88,229,112.77c10-7.58,18-12.85,24.54-16.29l-7.33-34.86a205.81,205.81,0,0,0-23.93,11.95C199,86.73,171.93,88,151.56,76.86c-1.46-.8-2.87-1.66-4.24-2.57,0,.08,0,.15.06.23C147.84,77.38,145.42,77.35,145.42,77.35Z"/><path class="cls-19" d="M145.42,77.35,144,77.14l-.54,3.51,19.59,3-1.86,12-35.06-5.43h0l35,5.43-4.43,28.58c.86.38,1.72.75,2.6,1.09C181,133.7,207.7,128.88,229,112.77c10-7.58,18-12.85,24.54-16.29l-7.33-34.86a205.81,205.81,0,0,0-23.93,11.95C199,86.73,171.93,88,151.56,76.86c-1.46-.8-2.87-1.66-4.24-2.57,0,.08,0,.15.06.23C147.84,77.38,145.42,77.35,145.42,77.35Z"/><path class="cls-1" d="M145.81,74.72a7.12,7.12,0,0,0-.69-2c-.84-.62-1.65-1.26-2.45-1.92h-.09a1.87,1.87,0,0,1-1.67.79h0l-.12,0-.12,0h0a1.87,1.87,0,0,1-1.33-1.28S137,69.54,135,72.94a.82.82,0,0,0,.51,1.21l.78.16.08-.49a.92.92,0,0,1,1-.76l6.54,1a.49.49,0,0,1,.41.56l-.15,1,.7.09C145.95,75.73,145.81,74.72,145.81,74.72Z"/><path class="cls-20" d="M145.81,74.72a7.12,7.12,0,0,0-.69-2c-.84-.62-1.65-1.26-2.45-1.92h-.09a1.87,1.87,0,0,1-1.67.79h0l-.12,0-.12,0h0a1.87,1.87,0,0,1-1.33-1.28S137,69.54,135,72.94a.82.82,0,0,0,.51,1.21l.78.16.08-.49a.92.92,0,0,1,1-.76l6.54,1a.49.49,0,0,1,.41.56l-.15,1,.7.09C145.95,75.73,145.81,74.72,145.81,74.72Z"/><path class="cls-21" d="M145.81,74.72a7.12,7.12,0,0,0-.69-2c-.84-.62-1.65-1.26-2.45-1.92h-.09a1.87,1.87,0,0,1-1.67.79h0l-.12,0-.12,0h0a1.87,1.87,0,0,1-1.33-1.28S137,69.54,135,72.94a.82.82,0,0,0,.51,1.21l.78.16.08-.49a.92.92,0,0,1,1-.76l6.54,1a.49.49,0,0,1,.41.56l-.15,1,.7.09C145.95,75.73,145.81,74.72,145.81,74.72Z"/><path class="cls-1" d="M19.45,4.82,23,6.43a.49.49,0,0,1,.25.65l-.2.45.43.18a.55.55,0,0,0,.73-.48c.17-2.61-1.37-3.06-1.37-3.06a1.24,1.24,0,0,1-1.21.21h0l-.07,0-.07,0h0a1.24,1.24,0,0,1-.62-1.06s-1.34-.89-3.22.93a.55.55,0,0,0,.11.86l.47.24v0A.92.92,0,0,1,19.45,4.82Z"/><path class="cls-22" d="M19.45,4.82,23,6.43a.49.49,0,0,1,.25.65l-.2.45.43.18a.55.55,0,0,0,.73-.48c.17-2.61-1.37-3.06-1.37-3.06a1.24,1.24,0,0,1-1.21.21h0l-.07,0-.07,0h0a1.24,1.24,0,0,1-.62-1.06s-1.34-.89-3.22.93a.55.55,0,0,0,.11.86l.47.24v0A.92.92,0,0,1,19.45,4.82Z"/><path class="cls-23" d="M19.45,4.82,23,6.43a.49.49,0,0,1,.25.65l-.2.45.43.18a.55.55,0,0,0,.73-.48c.17-2.61-1.37-3.06-1.37-3.06a1.24,1.24,0,0,1-1.21.21h0l-.07,0-.07,0h0a1.24,1.24,0,0,1-.62-1.06s-1.34-.89-3.22.93a.55.55,0,0,0,.11.86l.47.24v0A.92.92,0,0,1,19.45,4.82Z"/><path class="cls-1" d="M29.39,1.47a1.72,1.72,0,0,1-.67.64,2,2,0,0,1-1.76,0L24.1.86l-.84,2.22a4.56,4.56,0,0,1,2,4.32C25,9.3,23.49,8.85,23.49,8.85l-.86-.38-1,2.14,12,5.41-3.32,7.33L5.84,12.29,30.28,23.34,14.78,57.61a52.9,52.9,0,0,0,8.77,5.47C33.86,62,45.4,57,56.57,52.17c6.6-2.87,13.29-5.77,19.75-7.86l-6-20.4,16.93-5,6.28,21.48-2.94.86a25.38,25.38,0,0,1,13.7,2.57c8.81,4.66,14.84,15.66,18.43,33.58l12.77,2,.55-3.58-1.53-.28s-2.31-.75-1-3.31a6.89,6.89,0,0,1,6.15-3.7l.06-.26a54,54,0,0,1-3.8-4l-.09,0a3,3,0,0,1-2.17-1.54,2.59,2.59,0,0,1-.29-1.37l0-.25c-7-9.51-11-21.47-11.78-35.18-.61-10.83-2.35-19.42-5.28-25.91H75.9l1.25,8.82.54-.14a1,1,0,0,1,.34,0,.83.83,0,0,1,.59.34,1.07,1.07,0,0,1,.18.42l.13.59a1,1,0,0,1,0,.52,1.11,1.11,0,0,1-.73.66l-1.68.49.45,1.25A2.55,2.55,0,0,1,79.34,14c.61.89-.21,1.26-.21,1.26l-.51.15L79,16.69,86,14.63l1.26,4.32-16.93,5-1.26-4.32,7-2.05-.38-1.29-.56.15s-.89.11-.84-1a2.55,2.55,0,0,1,1.48-2.21l-.27-1.3-1.69.46a1.11,1.11,0,0,1-1-.18,1,1,0,0,1-.31-.42l-.2-.57a1.07,1.07,0,0,1-.06-.45.83.83,0,0,1,.33-.6A1,1,0,0,1,73,10l.49-.15L67.89,0H30.09a2.05,2.05,0,0,1-.19.52Z"/><path class="cls-24" d="M29.39,1.47a1.72,1.72,0,0,1-.67.64,2,2,0,0,1-1.76,0L24.1.86l-.84,2.22a4.56,4.56,0,0,1,2,4.32C25,9.3,23.49,8.85,23.49,8.85l-.86-.38-1,2.14,12,5.41-3.32,7.33L5.84,12.29,30.28,23.34,14.78,57.61a52.9,52.9,0,0,0,8.77,5.47C33.86,62,45.4,57,56.57,52.17c6.6-2.87,13.29-5.77,19.75-7.86l-6-20.4,16.93-5,6.28,21.48-2.94.86a25.38,25.38,0,0,1,13.7,2.57c8.81,4.66,14.84,15.66,18.43,33.58l12.77,2,.55-3.58-1.53-.28s-2.31-.75-1-3.31a6.89,6.89,0,0,1,6.15-3.7l.06-.26a54,54,0,0,1-3.8-4l-.09,0a3,3,0,0,1-2.17-1.54,2.59,2.59,0,0,1-.29-1.37l0-.25c-7-9.51-11-21.47-11.78-35.18-.61-10.83-2.35-19.42-5.28-25.91H75.9l1.25,8.82.54-.14a1,1,0,0,1,.34,0,.83.83,0,0,1,.59.34,1.07,1.07,0,0,1,.18.42l.13.59a1,1,0,0,1,0,.52,1.11,1.11,0,0,1-.73.66l-1.68.49.45,1.25A2.55,2.55,0,0,1,79.34,14c.61.89-.21,1.26-.21,1.26l-.51.15L79,16.69,86,14.63l1.26,4.32-16.93,5-1.26-4.32,7-2.05-.38-1.29-.56.15s-.89.11-.84-1a2.55,2.55,0,0,1,1.48-2.21l-.27-1.3-1.69.46a1.11,1.11,0,0,1-1-.18,1,1,0,0,1-.31-.42l-.2-.57a1.07,1.07,0,0,1-.06-.45.83.83,0,0,1,.33-.6A1,1,0,0,1,73,10l.49-.15L67.89,0H30.09a2.05,2.05,0,0,1-.19.52Z"/><path class="cls-25" d="M29.39,1.47a1.72,1.72,0,0,1-.67.64,2,2,0,0,1-1.76,0L24.1.86l-.84,2.22a4.56,4.56,0,0,1,2,4.32C25,9.3,23.49,8.85,23.49,8.85l-.86-.38-1,2.14,12,5.41-3.32,7.33L5.84,12.29,30.28,23.34,14.78,57.61a52.9,52.9,0,0,0,8.77,5.47C33.86,62,45.4,57,56.57,52.17c6.6-2.87,13.29-5.77,19.75-7.86l-6-20.4,16.93-5,6.28,21.48-2.94.86a25.38,25.38,0,0,1,13.7,2.57c8.81,4.66,14.84,15.66,18.43,33.58l12.77,2,.55-3.58-1.53-.28s-2.31-.75-1-3.31a6.89,6.89,0,0,1,6.15-3.7l.06-.26a54,54,0,0,1-3.8-4l-.09,0a3,3,0,0,1-2.17-1.54,2.59,2.59,0,0,1-.29-1.37l0-.25c-7-9.51-11-21.47-11.78-35.18-.61-10.83-2.35-19.42-5.28-25.91H75.9l1.25,8.82.54-.14a1,1,0,0,1,.34,0,.83.83,0,0,1,.59.34,1.07,1.07,0,0,1,.18.42l.13.59a1,1,0,0,1,0,.52,1.11,1.11,0,0,1-.73.66l-1.68.49.45,1.25A2.55,2.55,0,0,1,79.34,14c.61.89-.21,1.26-.21,1.26l-.51.15L79,16.69,86,14.63l1.26,4.32-16.93,5-1.26-4.32,7-2.05-.38-1.29-.56.15s-.89.11-.84-1a2.55,2.55,0,0,1,1.48-2.21l-.27-1.3-1.69.46a1.11,1.11,0,0,1-1-.18,1,1,0,0,1-.31-.42l-.2-.57a1.07,1.07,0,0,1-.06-.45.83.83,0,0,1,.33-.6A1,1,0,0,1,73,10l.49-.15L67.89,0H30.09a2.05,2.05,0,0,1-.19.52Z"/><polygon class="cls-1" points="72.3 0 71.87 0 72.45 1.02 72.3 0"/><polygon class="cls-26" points="72.3 0 71.87 0 72.45 1.02 72.3 0"/><polygon class="cls-27" points="72.3 0 71.87 0 72.45 1.02 72.3 0"/><path class="cls-1" d="M27.07,1.05a1.4,1.4,0,0,0,1,0h0a.88.88,0,0,0,.47-.44l.3-.6V0H24.59V0Z"/><path class="cls-28" d="M27.07,1.05a1.4,1.4,0,0,0,1,0h0a.88.88,0,0,0,.47-.44l.3-.6V0H24.59V0Z"/><path class="cls-29" d="M27.07,1.05a1.4,1.4,0,0,0,1,0h0a.88.88,0,0,0,.47-.44l.3-.6V0H24.59V0Z"/><path class="cls-1" d="M260.81,30.3l6.47-1.36a.49.49,0,0,1,.59.38l.2,1,.69-.16a.82.82,0,0,0,.46-1.23c-2.12-3.33-4.4-2.5-4.4-2.5a1.87,1.87,0,0,1-1.29,1.33h0l-.12,0-.12,0h0a1.87,1.87,0,0,1-1.7-.73s-2.42.11-3.1,4c0,0-.1,1,.9,1l.79-.13-.1-.49A.92.92,0,0,1,260.81,30.3Z"/><path class="cls-30" d="M260.81,30.3l6.47-1.36a.49.49,0,0,1,.59.38l.2,1,.69-.16a.82.82,0,0,0,.46-1.23c-2.12-3.33-4.4-2.5-4.4-2.5a1.87,1.87,0,0,1-1.29,1.33h0l-.12,0-.12,0h0a1.87,1.87,0,0,1-1.7-.73s-2.42.11-3.1,4c0,0-.1,1,.9,1l.79-.13-.1-.49A.92.92,0,0,1,260.81,30.3Z"/><path class="cls-31" d="M260.81,30.3l6.47-1.36a.49.49,0,0,1,.59.38l.2,1,.69-.16a.82.82,0,0,0,.46-1.23c-2.12-3.33-4.4-2.5-4.4-2.5a1.87,1.87,0,0,1-1.29,1.33h0l-.12,0-.12,0h0a1.87,1.87,0,0,1-1.7-.73s-2.42.11-3.1,4c0,0-.1,1,.9,1l.79-.13-.1-.49A.92.92,0,0,1,260.81,30.3Z"/><path class="cls-32" d="M260.81,30.3l6.47-1.36a.49.49,0,0,1,.59.38l.2,1,.69-.16a.82.82,0,0,0,.46-1.23c-2.12-3.33-4.4-2.5-4.4-2.5a1.87,1.87,0,0,1-1.29,1.33h0l-.12,0-.12,0h0a1.87,1.87,0,0,1-1.7-.73s-2.42.11-3.1,4c0,0-.1,1,.9,1l.79-.13-.1-.49A.92.92,0,0,1,260.81,30.3Z"/><path class="cls-1" d="M254.73,17.6a1.46,1.46,0,0,0-.51,1.23l.22,1a1.33,1.33,0,0,0,.53.81h0a2.11,2.11,0,0,0,1.52.32l4-.64a2.35,2.35,0,0,1,1.08-1.15v0l.12,0,.11,0v0a2.35,2.35,0,0,1,1.44.65l3.93-.94a2.11,2.11,0,0,0,1.28-.88v0a1.33,1.33,0,0,0,.18-1l-.18-1a1.46,1.46,0,0,0-.95-.94,1.71,1.71,0,0,0-.86,0l-.88.17a.28.28,0,0,1-.12.08l-9.18,1.9v0a.27.27,0,0,1-.14,0l-.83.17A1.71,1.71,0,0,0,254.73,17.6Z"/><path class="cls-33" d="M254.73,17.6a1.46,1.46,0,0,0-.51,1.23l.22,1a1.33,1.33,0,0,0,.53.81h0a2.11,2.11,0,0,0,1.52.32l4-.64a2.35,2.35,0,0,1,1.08-1.15v0l.12,0,.11,0v0a2.35,2.35,0,0,1,1.44.65l3.93-.94a2.11,2.11,0,0,0,1.28-.88v0a1.33,1.33,0,0,0,.18-1l-.18-1a1.46,1.46,0,0,0-.95-.94,1.71,1.71,0,0,0-.86,0l-.88.17a.28.28,0,0,1-.12.08l-9.18,1.9v0a.27.27,0,0,1-.14,0l-.83.17A1.71,1.71,0,0,0,254.73,17.6Z"/><path class="cls-34" d="M254.73,17.6a1.46,1.46,0,0,0-.51,1.23l.22,1a1.33,1.33,0,0,0,.53.81h0a2.11,2.11,0,0,0,1.52.32l4-.64a2.35,2.35,0,0,1,1.08-1.15v0l.12,0,.11,0v0a2.35,2.35,0,0,1,1.44.65l3.93-.94a2.11,2.11,0,0,0,1.28-.88v0a1.33,1.33,0,0,0,.18-1l-.18-1a1.46,1.46,0,0,0-.95-.94,1.71,1.71,0,0,0-.86,0l-.88.17a.28.28,0,0,1-.12.08l-9.18,1.9v0a.27.27,0,0,1-.14,0l-.83.17A1.71,1.71,0,0,0,254.73,17.6Z"/><path class="cls-35" d="M254.73,17.6a1.46,1.46,0,0,0-.51,1.23l.22,1a1.33,1.33,0,0,0,.53.81h0a2.11,2.11,0,0,0,1.52.32l4-.64a2.35,2.35,0,0,1,1.08-1.15v0l.12,0,.11,0v0a2.35,2.35,0,0,1,1.44.65l3.93-.94a2.11,2.11,0,0,0,1.28-.88v0a1.33,1.33,0,0,0,.18-1l-.18-1a1.46,1.46,0,0,0-.95-.94,1.71,1.71,0,0,0-.86,0l-.88.17a.28.28,0,0,1-.12.08l-9.18,1.9v0a.27.27,0,0,1-.14,0l-.83.17A1.71,1.71,0,0,0,254.73,17.6Z"/><path class="cls-1" d="M260.47,42.48A2,2,0,0,0,262.85,44l7.93-1.67a2,2,0,1,0-.83-3.93l-.17,0,.51,2.42-7.85,1.65-.51-2.41A2,2,0,0,0,260.47,42.48Z"/><path class="cls-36" d="M260.47,42.48A2,2,0,0,0,262.85,44l7.93-1.67a2,2,0,1,0-.83-3.93l-.17,0,.51,2.42-7.85,1.65-.51-2.41A2,2,0,0,0,260.47,42.48Z"/><path class="cls-37" d="M260.47,42.48A2,2,0,0,0,262.85,44l7.93-1.67a2,2,0,1,0-.83-3.93l-.17,0,.51,2.42-7.85,1.65-.51-2.41A2,2,0,0,0,260.47,42.48Z"/><path class="cls-38" d="M260.47,42.48A2,2,0,0,0,262.85,44l7.93-1.67a2,2,0,1,0-.83-3.93l-.17,0,.51,2.42-7.85,1.65-.51-2.41A2,2,0,0,0,260.47,42.48Z"/><path class="cls-1" d="M142.67,70.83c.8.66,1.61,1.3,2.45,1.92A3.34,3.34,0,0,0,142.67,70.83Z"/><path class="cls-39" d="M142.67,70.83c.8.66,1.61,1.3,2.45,1.92A3.34,3.34,0,0,0,142.67,70.83Z"/><path class="cls-40" d="M142.67,70.83c.8.66,1.61,1.3,2.45,1.92A3.34,3.34,0,0,0,142.67,70.83Z"/><path class="cls-41" d="M142.67,70.83c.8.66,1.61,1.3,2.45,1.92A3.34,3.34,0,0,0,142.67,70.83Z"/><path class="cls-1" d="M136.25,59a1.46,1.46,0,0,0-.91,1l-.14,1a1.33,1.33,0,0,0,.21.94v0a2.11,2.11,0,0,0,1.31.84l4,.81a2.35,2.35,0,0,1,1.41-.7v0l.12,0h.12v0a2.35,2.35,0,0,1,1.11,1.11l4,.51a2.11,2.11,0,0,0,1.5-.37h0a1.33,1.33,0,0,0,.51-.83l.19-1a1.46,1.46,0,0,0-.56-1.21,1.71,1.71,0,0,0-.79-.34l-.88-.15a.28.28,0,0,1-.14,0L138,59.22v0a.27.27,0,0,1-.11-.09l-.84-.14A1.71,1.71,0,0,0,136.25,59Z"/><path class="cls-42" d="M136.25,59a1.46,1.46,0,0,0-.91,1l-.14,1a1.33,1.33,0,0,0,.21.94v0a2.11,2.11,0,0,0,1.31.84l4,.81a2.35,2.35,0,0,1,1.41-.7v0l.12,0h.12v0a2.35,2.35,0,0,1,1.11,1.11l4,.51a2.11,2.11,0,0,0,1.5-.37h0a1.33,1.33,0,0,0,.51-.83l.19-1a1.46,1.46,0,0,0-.56-1.21,1.71,1.71,0,0,0-.79-.34l-.88-.15a.28.28,0,0,1-.14,0L138,59.22v0a.27.27,0,0,1-.11-.09l-.84-.14A1.71,1.71,0,0,0,136.25,59Z"/><path class="cls-43" d="M136.25,59a1.46,1.46,0,0,0-.91,1l-.14,1a1.33,1.33,0,0,0,.21.94v0a2.11,2.11,0,0,0,1.31.84l4,.81a2.35,2.35,0,0,1,1.41-.7v0l.12,0h.12v0a2.35,2.35,0,0,1,1.11,1.11l4,.51a2.11,2.11,0,0,0,1.5-.37h0a1.33,1.33,0,0,0,.51-.83l.19-1a1.46,1.46,0,0,0-.56-1.21,1.71,1.71,0,0,0-.79-.34l-.88-.15a.28.28,0,0,1-.14,0L138,59.22v0a.27.27,0,0,1-.11-.09l-.84-.14A1.71,1.71,0,0,0,136.25,59Z"/><path class="cls-44" d="M136.25,59a1.46,1.46,0,0,0-.91,1l-.14,1a1.33,1.33,0,0,0,.21.94v0a2.11,2.11,0,0,0,1.31.84l4,.81a2.35,2.35,0,0,1,1.41-.7v0l.12,0h.12v0a2.35,2.35,0,0,1,1.11,1.11l4,.51a2.11,2.11,0,0,0,1.5-.37h0a1.33,1.33,0,0,0,.51-.83l.19-1a1.46,1.46,0,0,0-.56-1.21,1.71,1.71,0,0,0-.79-.34l-.88-.15a.28.28,0,0,1-.14,0L138,59.22v0a.27.27,0,0,1-.11-.09l-.84-.14A1.71,1.71,0,0,0,136.25,59Z"/><path class="cls-1" d="M136,64.27a54,54,0,0,0,3.8,4l.77-3.22Z"/><path class="cls-45" d="M136,64.27a54,54,0,0,0,3.8,4l.77-3.22Z"/><path class="cls-46" d="M136,64.27a54,54,0,0,0,3.8,4l.77-3.22Z"/><path class="cls-47" d="M136,64.27a54,54,0,0,0,3.8,4l.77-3.22Z"/><path class="cls-1" d="M148,59.32l1.47.27a2.6,2.6,0,0,1,.88.31,2.23,2.23,0,0,1,1.05,1.51,2.89,2.89,0,0,1,0,1.22L151,64.23a2.59,2.59,0,0,1-.71,1.21,3,3,0,0,1-2.55.77l-4.67-.72L142.74,69a6.87,6.87,0,0,1,4.58,5.25c1.36.91,2.77,1.77,4.24,2.57C171.93,88,199,86.73,222.32,73.57a205.81,205.81,0,0,1,23.93-11.95l-1.84-8.73,46.18-9.71c-1.17,1.88-2.43,3.79-3.81,5.72a61.69,61.69,0,0,0-3.92,6.22,42.77,42.77,0,0,0-3.7,8.81l.13.11A49.21,49.21,0,0,1,287,48.9C300.6,29.82,303.4,13.45,300.08,0H265l.87,13.73,1.47-.27a2.6,2.6,0,0,1,.93,0,2.23,2.23,0,0,1,1.52,1,2.89,2.89,0,0,1,.4,1.15l.23,1.62a2.59,2.59,0,0,1-.24,1.38A3,3,0,0,1,268,20.25l-4.63,1,.95,3.45a6.89,6.89,0,0,1,6.27,3.49c1.44,2.51-.84,3.34-.84,3.34l-1.4.3.73,3.47,19.4-4.08,2.41,11.45-.32.52-46.14,9.7L242,41l19.3-4.06-.75-3.55-1.53.28s-2.42.11-2.06-2.76a6.89,6.89,0,0,1,4.45-5.64l-.45-3.55-4.65.88a3,3,0,0,1-2.57-.68,2.59,2.59,0,0,1-.75-1.18l-.41-1.58a2.89,2.89,0,0,1-.07-1.22,2.23,2.23,0,0,1,1-1.54,2.6,2.6,0,0,1,.87-.34l1.35-.29L248.32,0H162l3.88,1.11Z"/><path class="cls-48" d="M148,59.32l1.47.27a2.6,2.6,0,0,1,.88.31,2.23,2.23,0,0,1,1.05,1.51,2.89,2.89,0,0,1,0,1.22L151,64.23a2.59,2.59,0,0,1-.71,1.21,3,3,0,0,1-2.55.77l-4.67-.72L142.74,69a6.87,6.87,0,0,1,4.58,5.25c1.36.91,2.77,1.77,4.24,2.57C171.93,88,199,86.73,222.32,73.57a205.81,205.81,0,0,1,23.93-11.95l-1.84-8.73,46.18-9.71c-1.17,1.88-2.43,3.79-3.81,5.72a61.69,61.69,0,0,0-3.92,6.22,42.77,42.77,0,0,0-3.7,8.81l.13.11A49.21,49.21,0,0,1,287,48.9C300.6,29.82,303.4,13.45,300.08,0H265l.87,13.73,1.47-.27a2.6,2.6,0,0,1,.93,0,2.23,2.23,0,0,1,1.52,1,2.89,2.89,0,0,1,.4,1.15l.23,1.62a2.59,2.59,0,0,1-.24,1.38A3,3,0,0,1,268,20.25l-4.63,1,.95,3.45a6.89,6.89,0,0,1,6.27,3.49c1.44,2.51-.84,3.34-.84,3.34l-1.4.3.73,3.47,19.4-4.08,2.41,11.45-.32.52-46.14,9.7L242,41l19.3-4.06-.75-3.55-1.53.28s-2.42.11-2.06-2.76a6.89,6.89,0,0,1,4.45-5.64l-.45-3.55-4.65.88a3,3,0,0,1-2.57-.68,2.59,2.59,0,0,1-.75-1.18l-.41-1.58a2.89,2.89,0,0,1-.07-1.22,2.23,2.23,0,0,1,1-1.54,2.6,2.6,0,0,1,.87-.34l1.35-.29L248.32,0H162l3.88,1.11Z"/><path class="cls-49" d="M148,59.32l1.47.27a2.6,2.6,0,0,1,.88.31,2.23,2.23,0,0,1,1.05,1.51,2.89,2.89,0,0,1,0,1.22L151,64.23a2.59,2.59,0,0,1-.71,1.21,3,3,0,0,1-2.55.77l-4.67-.72L142.74,69a6.87,6.87,0,0,1,4.58,5.25c1.36.91,2.77,1.77,4.24,2.57C171.93,88,199,86.73,222.32,73.57a205.81,205.81,0,0,1,23.93-11.95l-1.84-8.73,46.18-9.71c-1.17,1.88-2.43,3.79-3.81,5.72a61.69,61.69,0,0,0-3.92,6.22,42.77,42.77,0,0,0-3.7,8.81l.13.11A49.21,49.21,0,0,1,287,48.9C300.6,29.82,303.4,13.45,300.08,0H265l.87,13.73,1.47-.27a2.6,2.6,0,0,1,.93,0,2.23,2.23,0,0,1,1.52,1,2.89,2.89,0,0,1,.4,1.15l.23,1.62a2.59,2.59,0,0,1-.24,1.38A3,3,0,0,1,268,20.25l-4.63,1,.95,3.45a6.89,6.89,0,0,1,6.27,3.49c1.44,2.51-.84,3.34-.84,3.34l-1.4.3.73,3.47,19.4-4.08,2.41,11.45-.32.52-46.14,9.7L242,41l19.3-4.06-.75-3.55-1.53.28s-2.42.11-2.06-2.76a6.89,6.89,0,0,1,4.45-5.64l-.45-3.55-4.65.88a3,3,0,0,1-2.57-.68,2.59,2.59,0,0,1-.75-1.18l-.41-1.58a2.89,2.89,0,0,1-.07-1.22,2.23,2.23,0,0,1,1-1.54,2.6,2.6,0,0,1,.87-.34l1.35-.29L248.32,0H162l3.88,1.11Z"/><path class="cls-50" d="M148,59.32l1.47.27a2.6,2.6,0,0,1,.88.31,2.23,2.23,0,0,1,1.05,1.51,2.89,2.89,0,0,1,0,1.22L151,64.23a2.59,2.59,0,0,1-.71,1.21,3,3,0,0,1-2.55.77l-4.67-.72L142.74,69a6.87,6.87,0,0,1,4.58,5.25c1.36.91,2.77,1.77,4.24,2.57C171.93,88,199,86.73,222.32,73.57a205.81,205.81,0,0,1,23.93-11.95l-1.84-8.73,46.18-9.71c-1.17,1.88-2.43,3.79-3.81,5.72a61.69,61.69,0,0,0-3.92,6.22,42.77,42.77,0,0,0-3.7,8.81l.13.11A49.21,49.21,0,0,1,287,48.9C300.6,29.82,303.4,13.45,300.08,0H265l.87,13.73,1.47-.27a2.6,2.6,0,0,1,.93,0,2.23,2.23,0,0,1,1.52,1,2.89,2.89,0,0,1,.4,1.15l.23,1.62a2.59,2.59,0,0,1-.24,1.38A3,3,0,0,1,268,20.25l-4.63,1,.95,3.45a6.89,6.89,0,0,1,6.27,3.49c1.44,2.51-.84,3.34-.84,3.34l-1.4.3.73,3.47,19.4-4.08,2.41,11.45-.32.52-46.14,9.7L242,41l19.3-4.06-.75-3.55-1.53.28s-2.42.11-2.06-2.76a6.89,6.89,0,0,1,4.45-5.64l-.45-3.55-4.65.88a3,3,0,0,1-2.57-.68,2.59,2.59,0,0,1-.75-1.18l-.41-1.58a2.89,2.89,0,0,1-.07-1.22,2.23,2.23,0,0,1,1-1.54,2.6,2.6,0,0,1,.87-.34l1.35-.29L248.32,0H162l3.88,1.11Z"/><polygon class="cls-1" points="156.04 0 142.57 0 145.44 34.91 156.04 0"/><polygon class="cls-51" points="156.04 0 142.57 0 145.44 34.91 156.04 0"/><polygon class="cls-52" points="156.04 0 142.57 0 145.44 34.91 156.04 0"/><polygon class="cls-53" points="156.04 0 142.57 0 145.44 34.91 156.04 0"/><path class="cls-1" d="M133.5,61.09l.14-1.38a2.89,2.89,0,0,1,.37-1.17,2.23,2.23,0,0,1,1.48-1.09,2.6,2.6,0,0,1,.93,0l1.36.2L133.4,0h-17c2.93,6.49,4.67,15.08,5.28,25.91C122.48,39.62,126.55,51.58,133.5,61.09Z"/><path class="cls-54" d="M133.5,61.09l.14-1.38a2.89,2.89,0,0,1,.37-1.17,2.23,2.23,0,0,1,1.48-1.09,2.6,2.6,0,0,1,.93,0l1.36.2L133.4,0h-17c2.93,6.49,4.67,15.08,5.28,25.91C122.48,39.62,126.55,51.58,133.5,61.09Z"/><path class="cls-55" d="M133.5,61.09l.14-1.38a2.89,2.89,0,0,1,.37-1.17,2.23,2.23,0,0,1,1.48-1.09,2.6,2.6,0,0,1,.93,0l1.36.2L133.4,0h-17c2.93,6.49,4.67,15.08,5.28,25.91C122.48,39.62,126.55,51.58,133.5,61.09Z"/><path class="cls-56" d="M133.5,61.09l.14-1.38a2.89,2.89,0,0,1,.37-1.17,2.23,2.23,0,0,1,1.48-1.09,2.6,2.6,0,0,1,.93,0l1.36.2L133.4,0h-17c2.93,6.49,4.67,15.08,5.28,25.91C122.48,39.62,126.55,51.58,133.5,61.09Z"/><path class="cls-57" d="M156.72,124.26l4.43-28.58-35-5.43-12-1.86-.4,2.6-.1.65a68.9,68.9,0,0,1-.79,17.71,52.25,52.25,0,0,0,2,25.8v-.07L146.58,140l-.36,2.31-30.44-4.72a42.82,42.82,0,0,0,9.12,13.52l.2,0,26.81,4.15Zm-17.2,11.56L123,133.26l.38-2.45,16.49,2.56Zm6.31-9.21-26.35-4.08L123.59,96l26.35,4.08Z"/><path class="cls-57" d="M114.18,88.4l12,1.85,35.06,5.43,1.86-12-19.59-3-.5,3.21.17,0a2,2,0,0,1-.62,4l-8-1.24a2,2,0,0,1-1.68-2.29h0a2,2,0,0,1,2.2-1.68l.5-3.22-12.77-2-6.72-1Z"/><rect class="cls-58" x="130.23" y="124.97" width="2.48" height="16.69" transform="matrix(0.15, -0.99, 0.99, 0.15, -20.4, 242.82)"/><path class="cls-58" d="M146.23,142.32l.36-2.31-31.74-4.92v.07q.44,1.24,1,2.44Z"/><rect class="cls-58" x="121.29" y="97.97" width="26.85" height="26.67" transform="translate(4.1 227.38) rotate(-81.19)"/><path class="cls-57" d="M135.54,74.15a.82.82,0,0,1-.51-1.21c2-3.4,4.31-2.65,4.31-2.65a1.87,1.87,0,0,0,1.33,1.28h0l.12,0,.12,0h0a1.87,1.87,0,0,0,1.67-.79h.09a3.34,3.34,0,0,1,2.45,1.92,7.12,7.12,0,0,1,.69,2s.14,1-.87,1l-.7-.09L144,77.14l1.41.21s2.42,0,2-2.83c0-.08,0-.15-.06-.23A6.87,6.87,0,0,0,142.74,69l.33-3.56,4.67.72a3,3,0,0,0,2.55-.77,2.59,2.59,0,0,0,.71-1.21l.36-1.59a2.89,2.89,0,0,0,0-1.22,2.23,2.23,0,0,0-1.05-1.51,2.6,2.6,0,0,0-.88-.31L148,59.32l-.36,1.16a.28.28,0,0,1-.18.17l.88.15a1.71,1.71,0,0,1,.79.34,1.46,1.46,0,0,1,.56,1.21l-.19,1a1.33,1.33,0,0,1-.51.83h0a2.11,2.11,0,0,1-1.5.37l-4-.51a2.35,2.35,0,0,0-1.11-1.11v0h-.12l-.12,0v0a2.35,2.35,0,0,0-1.41.7l-4-.81a2.11,2.11,0,0,1-1.31-.84v0a1.33,1.33,0,0,1-.21-.94l.14-1a1.46,1.46,0,0,1,.91-1,1.71,1.71,0,0,1,.86-.07l.84.14a.29.29,0,0,1-.06-.14l-.1-1.31-1.36-.2a2.6,2.6,0,0,0-.93,0A2.23,2.23,0,0,0,134,58.54a2.89,2.89,0,0,0-.37,1.17l-.14,1.38,0,.25a2.59,2.59,0,0,0,.29,1.37,3,3,0,0,0,2.17,1.54l.09,0,4.57.8-.77,3.22-.06.26a6.89,6.89,0,0,0-6.15,3.7c-1.36,2.56,1,3.31,1,3.31l1.53.28.24-1.53Z"/><path class="cls-59" d="M147.53,60.35a.29.29,0,0,1-.34.31l-9.05-1.44s0,0-.07,0v0l9.26,1.46a.36.36,0,0,0,.33-.2l.36-1.16L165.85,1.11,162,0H156L145.44,34.91Z"/><path class="cls-57" d="M137.89,59a.29.29,0,0,0,.06.14.27.27,0,0,0,.11.09s0,0,.07,0l9.05,1.44a.29.29,0,0,0,.34-.31l-2.09-25.44L142.57,0H133.4l4.38,57.64Z"/><path class="cls-59" d="M134.65,85.08l7.93,1.23.38-2.45.5-3.21.54-3.51.24-1.53.15-1a.49.49,0,0,0-.41-.56l-6.54-1a.92.92,0,0,0-1,.76l-.08.49-.24,1.53-.55,3.58-.5,3.22Z"/><path class="cls-57" d="M256.83,111.94l36.3-7.63c-1.31-1.61-2.6-3.22-3.82-4.83-1.45-1.9-2.82-3.81-4.08-5.73l-23.18,4.87-.48-2.29,22.33-4.69q-.84-1.39-1.58-2.8l-13.74,2.89-.51-2.42,13.11-2.76a36.77,36.77,0,0,1-2.5-7.23l-17.21,3.62-5.52-26.27L282,51.17l.83,3.95a61.69,61.69,0,0,1,3.92-6.22c1.38-1.94,2.64-3.84,3.81-5.72l-46.18,9.71,1.84,8.73,7.33,34.86Z"/><path class="cls-57" d="M270,38.43a2,2,0,1,1,.83,3.93L262.85,44a2,2,0,0,1-.92-3.91l-.67-3.19L242,41l2.5,11.89,46.14-9.7.32-.52L288.52,31.2l-19.4,4.08.67,3.18Z"/><path class="cls-58" d="M268.07,89.3l.51,2.42,13.74-2.89c-.4-.76-.78-1.52-1.14-2.29Z"/><path class="cls-58" d="M261.57,96.33l.48,2.29,23.18-4.87c-.46-.7-.91-1.4-1.33-2.11Z"/><path class="cls-58" d="M255.94,56.66l5.52,26.27,17.21-3.62a30.36,30.36,0,0,1,.49-15.39,42.77,42.77,0,0,1,3.7-8.81L282,51.17Z"/><path class="cls-57" d="M265.79,15.17l.88-.17a1.71,1.71,0,0,1,.86,0,1.46,1.46,0,0,1,.95.94l.18,1a1.33,1.33,0,0,1-.18,1v0a2.11,2.11,0,0,1-1.28.88l-3.93.94a2.35,2.35,0,0,0-1.44-.65v0l-.11,0-.12,0v0a2.35,2.35,0,0,0-1.08,1.15l-4,.64a2.11,2.11,0,0,1-1.52-.32h0a1.33,1.33,0,0,1-.53-.81l-.22-1a1.46,1.46,0,0,1,.51-1.23,1.71,1.71,0,0,1,.78-.37l.83-.17a.28.28,0,0,1-.1-.11l-.56-1.19-1.35.29a2.6,2.6,0,0,0-.87.34,2.23,2.23,0,0,0-1,1.54,2.89,2.89,0,0,0,.07,1.22l.41,1.58a2.59,2.59,0,0,0,.75,1.18,3,3,0,0,0,2.57.68l4.65-.88.45,3.55a6.89,6.89,0,0,0-4.45,5.64c-.36,2.87,2.06,2.76,2.06,2.76l1.53-.28-.32-1.51-.79.13c-1,.06-.9-1-.9-1,.67-3.89,3.1-4,3.1-4a1.87,1.87,0,0,0,1.7.73h0l.12,0,.12,0h0a1.87,1.87,0,0,0,1.29-1.33s2.28-.83,4.4,2.5a.82.82,0,0,1-.46,1.23l-.69.16.32,1.51,1.4-.3s2.28-.83.84-3.34a6.89,6.89,0,0,0-6.27-3.49l-.95-3.45,4.63-1a3,3,0,0,0,2.11-1.62,2.59,2.59,0,0,0,.24-1.38l-.23-1.62a2.89,2.89,0,0,0-.4-1.15,2.23,2.23,0,0,0-1.52-1,2.6,2.6,0,0,0-.93,0l-1.47.27.08,1.21A.28.28,0,0,1,265.79,15.17Z"/><path class="cls-59" d="M265.76,14.86a.29.29,0,0,1-.21.41l-9,1.85h-.08v0l9.18-1.9a.36.36,0,0,0,.23-.31l-.08-1.21L265,0h-6.25Z"/><path class="cls-57" d="M256.24,17a.28.28,0,0,0,.1.11.27.27,0,0,0,.14,0h.08l9-1.85a.29.29,0,0,0,.21-.41L258.71,0H248.32l7.36,15.77Z"/><path class="cls-59" d="M267.86,29.32a.49.49,0,0,0-.59-.38l-6.47,1.36a.92.92,0,0,0-.71,1.08l.1.49.32,1.51.75,3.55.67,3.19.51,2.41,7.85-1.65-.51-2.42-.67-3.18-.73-3.47-.32-1.51Z"/><path class="cls-57" d="M5.84,12.29,1.59,10.37h0l-.2.45-.25.55A80.63,80.63,0,0,0,.22,30.21l6-13.33,16.1,7.28L15,40.37.68,33.88a42.05,42.05,0,0,0,1.47,6.18L10,43.63l-.68,1.49L2.91,42.21Q3.47,43.64,4.14,45l9,4.06-.64,1.41L5.35,47.25a36.84,36.84,0,0,0,9.39,10.46l0-.1,15.5-34.26Z"/><path class="cls-57" d="M5.84,12.29,30.31,23.36,33.63,16l-12-5.41-.89,2,.11,0A1.33,1.33,0,0,1,19.78,15l-4.89-2.21a1.33,1.33,0,0,1,1-2.45l.89-2L4.91,3,1.59,10.37h0Z"/><path class="cls-58" d="M9.36,45.13,10,43.63,2.15,40.07q.35,1.09.76,2.15Z"/><path class="cls-58" d="M12.48,50.47l.64-1.41L4.14,45c.38.76.77,1.51,1.21,2.25Z"/><path class="cls-58" d="M15,40.37l7.33-16.21L6.25,16.88l-6,13.33q.16,1.88.45,3.68Z"/><path class="cls-57" d="M21.44,2.23A4.56,4.56,0,0,0,16.86,3.5c-1.32,1.39,0,2.28,0,2.28l.93.45.42-.93-.47-.24a.55.55,0,0,1-.11-.86c1.88-1.81,3.22-.93,3.22-.93a1.24,1.24,0,0,0,.62,1.06h0l.07,0,.07,0h0a1.24,1.24,0,0,0,1.21-.21s1.54.45,1.37,3.06a.55.55,0,0,1-.73.48L23,7.54l-.42.93.86.38S25,9.3,25.25,7.4a4.56,4.56,0,0,0-2-4.32L24.1.86,27,2.15a2,2,0,0,0,1.76,0,1.72,1.72,0,0,0,.67-.64l.51-1A2.05,2.05,0,0,0,30.09,0H28.88V0l-.3.6a.88.88,0,0,1-.47.44h0a1.4,1.4,0,0,1-1,0L24.59,0V0H22.25l.33.16Z"/><path class="cls-59" d="M15.25,11.88l4.84,2.19.68-1.49.89-2,1-2.14L23,7.54l.2-.45A.49.49,0,0,0,23,6.43L19.45,4.82a.92.92,0,0,0-1.21.46v0l-.42.93-1,2.19-.89,2Z"/><path class="cls-57" d="M90.63,41.29l2.94-.86L87.29,19l-16.93,5,6,20.4.31,1.07Zm-1.26-5.16.24.83L78.19,40.31l-.24-.83Zm-9.23.56L86.09,35l.26.88L80.4,37.57Zm4.07-14.5L87,31.75l-9.49,2.78L74.73,25Z"/><path class="cls-57" d="M79.39,17.83a.75.75,0,1,1,.42,1.43l-2.89.84A.75.75,0,0,1,76,19.6h0a.74.74,0,0,1,.47-.91l-.34-1.16-7,2.05,1.26,4.32,16.93-5L86,14.63,79,16.69l.34,1.16Z"/><rect class="cls-58" x="80.15" y="35.8" width="6.19" height="0.92" transform="matrix(0.96, -0.28, 0.28, 0.96, -6.83, 24.82)"/><rect class="cls-58" x="77.82" y="37.79" width="11.91" height="0.87" transform="translate(-7.36 25.05) rotate(-16.3)"/><rect class="cls-58" x="75.92" y="23.38" width="9.89" height="9.96" transform="translate(-4.71 23.83) rotate(-16.3)"/><path class="cls-57" d="M77.18,9.35l.32-.09a.63.63,0,0,1,.32,0,.54.54,0,0,1,.38.32l.09.36a.49.49,0,0,1,0,.36h0a.78.78,0,0,1-.45.36l-1.43.46a.87.87,0,0,0-.55-.2h-.08a.87.87,0,0,0-.36.46l-1.46.35a.78.78,0,0,1-.57-.08h0a.49.49,0,0,1-.22-.28L73,11a.54.54,0,0,1,.15-.47.63.63,0,0,1,.28-.16l.3-.09,0,0-.24-.42L73,10a1,1,0,0,0-.31.15.83.83,0,0,0-.33.6,1.07,1.07,0,0,0,.06.45l.2.57a1,1,0,0,0,.31.42,1.11,1.11,0,0,0,1,.18l1.69-.46.27,1.3a2.55,2.55,0,0,0-1.48,2.21c-.05,1.07.84,1,.84,1l.56-.15-.05-.18a.9.9,0,0,1,0-.4l-.38.09c-.37.05-.36-.33-.36-.33.14-1.46,1-1.57,1-1.57a.7.7,0,0,0,.65.22h.08a.7.7,0,0,0,.44-.53s.82-.37,1.7.8a.31.31,0,0,1-.14.47l-.25.08.16.55.51-.15s.82-.37.21-1.26a2.55,2.55,0,0,0-2.42-1.11l-.45-1.25,1.68-.49a1.11,1.11,0,0,0,.73-.66,1,1,0,0,0,0-.52L78.8,9.4A1.07,1.07,0,0,0,78.62,9,.83.83,0,0,0,78,8.64a1,1,0,0,0-.34,0l-.54.14.06.44A.1.1,0,0,1,77.18,9.35Z"/><path class="cls-59" d="M77.16,9.23a.11.11,0,0,1-.06.16l-3.27.94h0v0l3.34-1,0,0a.1.1,0,0,0,0-.09l-.06-.44L75.9,0H72.3l.15,1Z"/><path class="cls-57" d="M73.7,10.28l0,0h.08l3.27-.94a.11.11,0,0,0,.06-.16L72.45,1l-.58-1h-4l5.57,9.86Z"/><path class="cls-59" d="M78.44,14.82a.49.49,0,0,0-.61-.34l-1.5.44a.91.91,0,0,0-.64.74.9.9,0,0,0,0,.4l.05.18.38,1.29.34,1.16.26.87,2.86-.84-.26-.88L79,16.69l-.37-1.26-.16-.55Z"/></g></g></svg>