<svg xmlns="http://www.w3.org/2000/svg" xmlns:xlink="http://www.w3.org/1999/xlink" viewBox="0 0 139.11 338.34"><defs><style>.cls-1,.cls-20{fill:none;}.cls-2{fill:#ef4323;}.cls-3{clip-path:url(#clip-path);}.cls-4{fill:#eceff1;}.cls-5{fill:#1976d2;}.cls-6{fill:#42a5f5;}.cls-7{clip-path:url(#clip-path-3);}.cls-8{fill:#3e2722;}.cls-9{fill:#ffcc80;}.cls-10{fill:#e5b772;}.cls-11{fill:#536dfe;}.cls-12{fill:#58595b;}.cls-13{fill:#231f20;}.cls-14,.cls-15{fill:#fff;}.cls-15{font-size:2.38px;font-family:ABeeZee-Regular, ABeeZee Regular;}.cls-16{fill:#383838;opacity:0.27;}.cls-17{fill:#b6c3c9;}.cls-18{fill:#0d47a1;}.cls-19{fill:#851619;}.cls-20{stroke:#000;stroke-miterlimit:10;}.cls-21{clip-path:url(#clip-path-4);}</style><clipPath id="clip-path"><path id="_Clipping_Path_" data-name="&lt;Clipping Path&gt;" class="cls-1" d="M112.49,280.17a7.66,7.66,0,0,1-7,8.34l-60.41,6.66a7.41,7.41,0,0,1-8.32-6.66L20.4,139.72A7.63,7.63,0,0,1,27,131.16l7-.77c1.48-.16,2-.21,2.32,1.65s1.76,2.85,3.63,3.21a6.61,6.61,0,0,0,2-.09l1.32-.15,29.29-3.23,1.32-.15a6.62,6.62,0,0,0,1.94-.3c1.74-.76,3-2.06,2.83-4s.43-1.9,1.91-2.07l6.92-.76a7.88,7.88,0,0,1,8.64,6.88Z"/></clipPath><clipPath id="clip-path-3"><rect class="cls-1" x="45.56" y="174.49" width="38.2" height="38.46" transform="translate(-20.9 8.28) rotate(-6.31)"/></clipPath><clipPath id="clip-path-4"><path class="cls-2" d="M76.17,258a13.38,13.38,0,0,1-9.1,1.07l-.71,1.06.83,1.33a16.8,16.8,0,0,0,10.05-1.53l.14-1.66Z"/></clipPath></defs><title>Asset 21</title><g id="Layer_2" data-name="Layer 2"><g id="Designed_by_Freepik" data-name="Designed by Freepik"><g class="cls-3"><rect class="cls-4" x="9.96" y="143.96" width="119.19" height="188.42" transform="translate(-25.67 9.05) rotate(-6.29)"/><rect class="cls-5" x="58.15" y="231.78" width="22.02" height="3.27" transform="translate(-25.23 9.01) rotate(-6.31)"/><rect class="cls-5" x="48.64" y="239.06" width="42.37" height="3.09" transform="translate(-26.02 9.13) rotate(-6.31)"/><rect class="cls-6" x="45.56" y="174.49" width="38.2" height="38.46" transform="translate(-20.9 8.28) rotate(-6.31)"/><g class="cls-7"><path class="cls-8" d="M55.84,211.13s-11-25.44,4.28-32.38l2.15,25.31.35,4.64.8,3-6.78,2.43Z"/><path class="cls-9" d="M62.06,204a37,37,0,0,1,.15,3.87l-.06,3.79,7.59-.73-.37-3.38s0-2.34,0-4.54C69.4,203,62.26,204.33,62.06,204Z"/><path class="cls-10" d="M67.49,210.36a9.3,9.3,0,0,1-3.8-5.87l5.75-1.58-.09,6.32S69,212,67.49,210.36Z"/><path class="cls-11" d="M50.68,218.22l.06-3.79s2.58-3.33,11.46-5.73c0,0,2.46,4.25,7.15.53l0-1.68s8.43-.3,13,3.56l0,2.53Z"/><path class="cls-8" d="M60.11,178.75S70.29,174.69,76,189.1c0,0,2.4,8.46,2.61,22.79l-.43.84-9.28.7.58-10.52S51,182.88,60.11,178.75Z"/><path class="cls-9" d="M56.52,193.45A12.88,12.88,0,0,0,63.38,186s1.62,4.24,9.18,5.61c0,0,1.17,6.34-1.84,10.08a7,7,0,0,1-6.78,2.85S57.62,204.42,56.52,193.45Z"/></g><path class="cls-5" d="M96.57,120.51l-79,8.74,2.23,20.17,79-8.74Z"/></g><g id="_Group_" data-name="&lt;Group&gt;"><path id="_Compound_Path_" data-name="&lt;Compound Path&gt;" class="cls-12" d="M100.49,130.7a12.72,12.72,0,0,0-14-11.25L26.1,126.1a12.72,12.72,0,0,0-11.25,14L31.26,289.05a12.72,12.72,0,0,0,14,11.25l60.35-6.65a12.72,12.72,0,0,0,11.25-14ZM115,279.7a10.89,10.89,0,0,1-9.63,12L45,298.37a10.89,10.89,0,0,1-12-9.63L16.54,139.83a10.89,10.89,0,0,1,9.63-12l60.36-6.65a10.89,10.89,0,0,1,12,9.63Z"/><path id="_Path_" data-name="&lt;Path&gt;" d="M16,150.49h-.11a.82.82,0,0,0-.73.91l.55,5a.82.82,0,0,0,.91.73h.11"/><path id="_Path_2" data-name="&lt;Path&gt;" d="M105.7,178h0a.94.94,0,0,0,.83-1l-2-18.42a.94.94,0,0,0-1-.83h0"/><g id="_Group_2" data-name="&lt;Group&gt;"><path id="_Path_3" data-name="&lt;Path&gt;" d="M17.39,163.18h0a.94.94,0,0,0-.83,1l1.15,10.47a.94.94,0,0,0,1,.83h0"/><path id="_Path_4" data-name="&lt;Path&gt;" d="M19.14,179h0a.94.94,0,0,0-.83,1l1.15,10.47a.94.94,0,0,0,1,.83h0"/></g><path id="_Compound_Path_2" data-name="&lt;Compound Path&gt;" class="cls-13" d="M98.54,130.79a10.89,10.89,0,0,0-12-9.63l-60.36,6.65a10.89,10.89,0,0,0-9.63,12L32.95,288.74a10.89,10.89,0,0,0,12,9.63l60.36-6.65a10.89,10.89,0,0,0,9.63-12Zm-31.6-3.17a1.07,1.07,0,1,1-1.18-.94A1.07,1.07,0,0,1,66.94,127.63Zm-14.5,1,9.46-1a.62.62,0,1,1,.13,1.21l-9.46,1a.62.62,0,1,1-.13-1.21Zm59.82,151.1a7.66,7.66,0,0,1-7,8.34L44.88,294.7A7.41,7.41,0,0,1,36.55,288L20.16,139.26a7.63,7.63,0,0,1,6.65-8.56l7-.77c1.48-.16,2-.21,2.32,1.65s1.76,2.85,3.63,3.21a6.61,6.61,0,0,0,2-.09l1.32-.15,29.29-3.23,1.32-.15a6.62,6.62,0,0,0,1.94-.3c1.74-.76,3-2.06,2.83-4s.43-1.9,1.91-2.07l6.92-.76a7.88,7.88,0,0,1,8.64,6.88Z"/><circle id="_Path_5" data-name="&lt;Path&gt;" class="cls-14" cx="65.87" cy="127.74" r="1.07" transform="translate(-13.6 7.99) rotate(-6.29)"/><path id="_Path_6" data-name="&lt;Path&gt;" class="cls-14" d="M52.57,129.82l9.46-1a.62.62,0,1,0-.13-1.21l-9.46,1a.62.62,0,1,0,.13,1.21Z"/></g><rect class="cls-14" x="86.81" y="127.09" width="0.58" height="1.32" transform="translate(-13.47 10.31) rotate(-6.29)"/><rect class="cls-14" x="87.55" y="127.01" width="0.58" height="1.32" transform="translate(-13.46 10.39) rotate(-6.29)"/><rect class="cls-14" x="88.3" y="126.93" width="0.58" height="1.32" transform="translate(-13.44 10.47) rotate(-6.29)"/><rect class="cls-14" x="89.04" y="126.85" width="0.58" height="1.32" transform="translate(-13.43 10.55) rotate(-6.29)"/><rect class="cls-14" x="89.79" y="127.04" width="0.29" height="0.8" transform="translate(-13.42 10.62) rotate(-6.29)"/><circle class="cls-14" cx="83.37" cy="128.92" r="0.28" transform="translate(-13.62 9.91) rotate(-6.29)"/><path class="cls-14" d="M84,128a1.27,1.27,0,0,0-1.45.16.19.19,0,0,0,.25.29.89.89,0,0,1,1-.11A.19.19,0,0,0,84,128Z"/><path class="cls-14" d="M84.47,127.46a2,2,0,0,0-2.49.27.19.19,0,1,0,.27.27,1.61,1.61,0,0,1,2-.22.19.19,0,1,0,.21-.32Z"/><text class="cls-15" transform="translate(24.48 135.32) rotate(-6.29)">08.00</text><path class="cls-16" d="M86.31,287l-22.48,2.48a1.21,1.21,0,0,1-1.34-1.07h0A1.21,1.21,0,0,1,63.57,287L86,284.56a1.21,1.21,0,0,1,1.34,1.07h0A1.21,1.21,0,0,1,86.31,287Z"/><path class="cls-17" d="M66,90.33a3.26,3.26,0,0,0-2.08-1.69,3.79,3.79,0,0,0-1.36-.08l-9.35.95h0l-.24,0-.24,0h0l-9.32,1.22a3.79,3.79,0,0,0-1.3.39,3.26,3.26,0,0,0-1.64,2.13,4.22,4.22,0,0,0,0,1.78l.41,2.35a3.78,3.78,0,0,0,1,1.81,4.36,4.36,0,0,0,3.66,1.29l6.86-.72.23,5.21a10,10,0,0,0-7.14,7.66c-.87,4.13,2.66,4.26,2.66,4.26l7.73-.77h.08l.34,0h.08l7.7-1s3.41-.93,1.62-4.75a10,10,0,0,0-8.7-5.82l-1-5.13,6.84-.87a4.36,4.36,0,0,0,3.26-2.1,3.78,3.78,0,0,0,.51-2l-.14-2.38A4.22,4.22,0,0,0,66,90.33ZM57.4,107.07s3.41-.93,6.09,4.16a1.2,1.2,0,0,1-.82,1.73l-6.87,1-6.93.57a1.2,1.2,0,0,1-1.2-1.5c1.44-5.57,5-5.45,5-5.45A2.73,2.73,0,0,0,55,108.89v0l.17,0,.17,0v0A2.73,2.73,0,0,0,57.4,107.07Zm6.69-13.25a1.94,1.94,0,0,1-.38,1.36l0,0a3.08,3.08,0,0,1-2,1.13l-5.83.9a3.42,3.42,0,0,0-2-1.11v0l-.17,0h-.17v0a3.42,3.42,0,0,0-1.7,1.54L46,98.16a3.08,3.08,0,0,1-2.17-.65l0,0a1.94,1.94,0,0,1-.68-1.24l-.2-1.47a2.13,2.13,0,0,1,.89-1.72A2.49,2.49,0,0,1,45,92.63l8.17-1h.14l8.17-.92a2.49,2.49,0,0,1,1.24.16A2.13,2.13,0,0,1,64,92.35Z"/><path class="cls-18" d="M46.4,92.63,60,91a.43.43,0,0,0,.38-.42L62,0H47.9Z"/><path class="cls-5" d="M46.06,92.31,11.87,0H26L60.14,90.4a.43.43,0,0,1-.35.58L46.52,92.59A.43.43,0,0,1,46.06,92.31Z"/><path class="cls-18" d="M62,128.1l-9.27,1.16-1.95-15.48a.51.51,0,0,1,.44-.57l8.23-1a.54.54,0,0,1,.6.47Z"/><path class="cls-19" d="M61.28,264.05l.07.58a1.2,1.2,0,0,1,1.54,1.08l1,8.93a1.13,1.13,0,0,1-1,1.51l.09.45,3.91-.46,0-.42s-1.88.35-2.05-1.15-1-8.72-1-8.72l9.09,9.58.53-.06L72,262.8l-2.63.31.07.58s1.77-.52,1.94.89l.9,7.68-7.86-8.57Z"/><path class="cls-19" d="M73.07,262.67l1,8.88A4.32,4.32,0,0,0,77.85,275l3.17-.37s2.87-.74,2.89-4.53l-.77-6.58s-.17-1.41.94-1.54l-.07-.56-4,.47.07.62a1.41,1.41,0,0,1,2,1.21l.77,6.58a3,3,0,0,1-2,3.27,6.79,6.79,0,0,1-2.3.31,3.25,3.25,0,0,1-2.89-2.46c-.15-1.1-.91-7.78-.91-7.78a.6.6,0,0,1,.61-.66l.66-.08-.08-.54Z"/><path class="cls-2" d="M64.41,253.46S62,256.4,66,258.53s9.62.3,11.1-1.3c0,0-.19.49-.36.8,0,0,0,.28.18.06s2.27-3-3.36-4.91c0,0,5.85-.21,6.74,2.84s-5,5.35-7.65,5.63-5.74.55-8.45-1.19a13.06,13.06,0,0,0,2.4.54s.42-.07.1-.23c0,0-4.26-.44-5.24-3S64.08,253.54,64.41,253.46Z"/><path class="cls-2" d="M80.64,257.21s1.24-3.79-6.13-4.29a15.91,15.91,0,0,0-7,1.42,8.88,8.88,0,0,1,5.5-2.88c3.78-.61,5.56,0,7.19,1S82,255.26,80.64,257.21Z"/><path class="cls-2" d="M66.26,258.27s-1.3-2.17,1.44-4.55a11.38,11.38,0,0,1,6.76-2.62,10.43,10.43,0,0,0-6.95.48c-3,1.3-3.47,3.25-3.47,3.25S63.41,257.11,66.26,258.27Z"/><path class="cls-20" d="M67.76,260.25"/><path class="cls-2" d="M76.17,258a13.38,13.38,0,0,1-9.1,1.07l-.71,1.06.83,1.33a16.8,16.8,0,0,0,10.05-1.53l.14-1.66Z"/><g class="cls-21"><image width="200" height="200" transform="matrix(0.13, -0.02, 0.02, 0.14, 57.78, 251.6)" xlink:href="../../1522047977Logo.png"/></g></g></g></svg>