<svg xmlns="http://www.w3.org/2000/svg" viewBox="0 0 114.21 8.81"><defs><style>.cls-1{fill:#fff;}.cls-2{fill:#ffcd05;}.cls-3{fill:#999;}</style></defs><title>Asset 12logo</title><g id="Layer_2" data-name="Layer 2"><g id="Table_Tennis" data-name="Table Tennis"><path class="cls-1" d="M15.86,6.06a2.5,2.5,0,0,1-.86,2,3.63,3.63,0,0,1-2.4.72,5,5,0,0,1-1.22-.14,3.17,3.17,0,0,1-1-.42V6.19a5.14,5.14,0,0,0,1.13.52,3.69,3.69,0,0,0,1.15.21,1,1,0,0,0,.66-.18.63.63,0,0,0,.22-.52.64.64,0,0,0-.07-.3,1.22,1.22,0,0,0-.2-.28q-.13-.14-.69-.61a3.83,3.83,0,0,1-1-1.12,2.61,2.61,0,0,1-.31-1.26A2.51,2.51,0,0,1,12.74.34,3.57,3.57,0,0,1,14.31,0a5.07,5.07,0,0,1,2.52.63L16,2.37a3.89,3.89,0,0,0-1.71-.52.89.89,0,0,0-.58.16.58.58,0,0,0-.2.48.85.85,0,0,0,.2.54,4.36,4.36,0,0,0,.75.67,3.75,3.75,0,0,1,1,1.07A2.48,2.48,0,0,1,15.86,6.06Z"/><path class="cls-1" d="M23.52,8.69H21.23L22,5.2h-2l-.74,3.49H16.9L18.71.12H21L20.34,3.3h2L23,.12h2.3Z"/><path class="cls-1" d="M30.3,7.08H27.67l-.73,1.61H24.56L28.92.12h2.95l.72,8.57H30.36ZM28.51,5.26h1.72l-.1-2.48v-.5q0-.44,0-.77a6.43,6.43,0,0,1-.36,1Z"/><path class="cls-1" d="M36.53,5.57l-.66,3.12H33.57L35.39.12h2.27a3.73,3.73,0,0,1,2.26.59,2.06,2.06,0,0,1,.79,1.76,3,3,0,0,1-.42,1.59A2.63,2.63,0,0,1,39,5.1l1.31,3,.23.56H38.1L37,5.57Zm.37-1.74h.3a1.21,1.21,0,0,0,.88-.32,1.19,1.19,0,0,0,.33-.89.72.72,0,0,0-.2-.55.83.83,0,0,0-.59-.19h-.31Z"/><path class="cls-1" d="M44.63,8.69V2.54h0q-.39,2.44-.5,3l-.66,3.15h-2L43.18.12h3V6.21h0L49.07.12h3.08L50.32,8.69H48.26l.69-3.22q.29-1.34.63-2.55l.09-.37h0L46.79,8.69Z"/><path class="cls-1" d="M57,1.55v0a6.2,6.2,0,0,1-.35,1L55.34,5.26h.83l-.38,1.82H54.5l-.74,1.61H51.39L55.75.12h1.51Z"/><path class="cls-2" d="M59.41,8.69H57.18l-.06-1.61H55.79l.38-1.82H57l-.1-2.49v-.5c0-.27,0-.51,0-.72l.3-1.43h1.43L59,4.06Z"/><path class="cls-2" d="M67.93,8.69H65.26l-1.69-6h0a23.73,23.73,0,0,1-.33,2.45l-.76,3.57h-2L62.2.12h2.67l1.68,5.76h.05q.17-1.38.33-2.17L67.7.12h2Z"/><path class="cls-2" d="M69.86,8.69,71.67.12H74L72.19,8.69Z"/><path class="cls-2" d="M77.09,5.57l-.66,3.12H74.13L75.94.12h2.27a3.73,3.73,0,0,1,2.26.59,2.06,2.06,0,0,1,.79,1.76,3,3,0,0,1-.42,1.59,2.63,2.63,0,0,1-1.24,1l1.31,3,.23.56h-2.5L77.51,5.57Zm.37-1.74h.3a1.21,1.21,0,0,0,.88-.32A1.19,1.19,0,0,0,79,2.62a.72.72,0,0,0-.2-.55.83.83,0,0,0-.59-.19h-.31Z"/><path class="cls-2" d="M90.24.12,89.07,5.58A4.09,4.09,0,0,1,87.75,8a4.08,4.08,0,0,1-2.64.79,2.89,2.89,0,0,1-1.39-.32,2.26,2.26,0,0,1-.93-.9,2.6,2.6,0,0,1-.33-1.29,4.16,4.16,0,0,1,.07-.76L83.71.12H86L84.86,5.47a3.44,3.44,0,0,0-.08.67q0,.74.71.74a1.06,1.06,0,0,0,.86-.38,2.69,2.69,0,0,0,.48-1.16L87.94.12Z"/><path class="cls-2" d="M98,3.36a6.49,6.49,0,0,1-.58,2.84,4.15,4.15,0,0,1-1.68,1.84,5.14,5.14,0,0,1-2.62.64H90.35L92.16.12h2.44A3.48,3.48,0,0,1,97.1,1,3.15,3.15,0,0,1,98,3.36ZM93.45,6.79a1.78,1.78,0,0,0,1.15-.41,2.64,2.64,0,0,0,.79-1.17,5,5,0,0,0,.28-1.73,1.69,1.69,0,0,0-.32-1.11A1.09,1.09,0,0,0,94.47,2h-.42l-1,4.8Z"/><path class="cls-2" d="M105.18,8.69h-2.29l.73-3.49h-2l-.74,3.49H98.56L100.37.12h2.29L102,3.3h2L104.7.12H107Z"/><path class="cls-3" d="M0,4.4,3.13,1.28l.21.21L.42,4.4,3.34,7.32l-.21.21Z"/><path class="cls-3" d="M4.5,8.31l-.25-.14L7.84.64l.25.14Z"/><path class="cls-3" d="M114.21,4.46l-3.13,3.13-.21-.21,2.92-2.92-2.92-2.92.21-.21Z"/></g></g></svg>