<svg xmlns="http://www.w3.org/2000/svg" xmlns:xlink="http://www.w3.org/1999/xlink" viewBox="0 0 492.13 397.23"><defs><style>.cls-1{fill:none;}.cls-2{isolation:isolate;}.cls-3{fill:#fec1b2;}.cls-4{clip-path:url(#clip-path);}.cls-5,.cls-6{fill:#fff;stroke-miterlimit:10;stroke-width:0.3px;}.cls-5{stroke:#662d91;}.cls-6{stroke:#fff;}.cls-13,.cls-14,.cls-16,.cls-17,.cls-18,.cls-20,.cls-21,.cls-25,.cls-29,.cls-31,.cls-34,.cls-7{mix-blend-mode:multiply;}.cls-7{fill:url(#linear-gradient);}.cls-8{fill:url(#linear-gradient-2);}.cls-9{fill:url(#badminton);}.cls-10{fill:url(#linear-gradient-3);}.cls-11{fill:url(#linear-gradient-4);}.cls-12{fill:url(#linear-gradient-5);}.cls-13{fill:url(#linear-gradient-6);}.cls-14{opacity:0.4;fill:url(#linear-gradient-7);}.cls-15{fill:url(#linear-gradient-8);}.cls-16{fill:url(#linear-gradient-9);}.cls-17{fill:url(#linear-gradient-10);}.cls-18{fill:url(#linear-gradient-11);}.cls-19{fill:url(#linear-gradient-12);}.cls-20{opacity:0.9;fill:url(#linear-gradient-13);}.cls-21{fill:url(#linear-gradient-14);}.cls-22{fill:url(#Shorts_gradient);}.cls-23{fill:url(#linear-gradient-15);}.cls-24{fill:url(#linear-gradient-16);}.cls-25{fill:url(#Shorts);}.cls-26{fill:url(#linear-gradient-17);}.cls-27{fill:url(#linear-gradient-18);}.cls-28{fill:url(#linear-gradient-19);}.cls-29{opacity:0.6;fill:url(#linear-gradient-20);}.cls-30{fill:url(#linear-gradient-21);}.cls-31{opacity:0.3;fill:url(#radial-gradient);}.cls-32{fill:url(#linear-gradient-22);}.cls-33{fill:url(#linear-gradient-23);}.cls-34{fill:url(#linear-gradient-24);}</style><clipPath id="clip-path"><path class="cls-1" d="M39.48,383.68c19,7.78,47.94-2,61.92-18.52s8.44-34.51-10.55-42.29S46.64,320.43,32.66,337,20.49,375.9,39.48,383.68Z"/></clipPath><linearGradient id="linear-gradient" x1="886.5" y1="734.71" x2="898.39" y2="751.97" gradientTransform="translate(551.34 1331.44) rotate(-149.52)" gradientUnits="userSpaceOnUse"><stop offset="0" stop-color="#8d98ba"/><stop offset="0.17" stop-color="#8f9abb" stop-opacity="0.98"/><stop offset="0.31" stop-color="#96a0bf" stop-opacity="0.92"/><stop offset="0.45" stop-color="#a1aac6" stop-opacity="0.82"/><stop offset="0.59" stop-color="#b1b8d0" stop-opacity="0.69"/><stop offset="0.72" stop-color="#c5cadc" stop-opacity="0.51"/><stop offset="0.86" stop-color="#dee1eb" stop-opacity="0.29"/><stop offset="0.98" stop-color="#fbfbfc" stop-opacity="0.04"/><stop offset="1" stop-color="#fff" stop-opacity="0"/></linearGradient><linearGradient id="linear-gradient-2" x1="903.08" y1="634.47" x2="903.08" y2="702.36" gradientTransform="translate(551.34 1331.44) rotate(-149.52)" gradientUnits="userSpaceOnUse"><stop offset="0" stop-color="#272438"/><stop offset="1" stop-color="#304260"/></linearGradient><linearGradient id="badminton" x1="895.27" y1="696.02" x2="895.27" y2="717.15" xlink:href="#linear-gradient-2"/><linearGradient id="linear-gradient-3" x1="891.15" y1="713.34" x2="891.15" y2="762.83" gradientTransform="translate(551.34 1331.44) rotate(-149.52)" gradientUnits="userSpaceOnUse"><stop offset="0" stop-color="#7adeee"/><stop offset="0" stop-color="#7de"/><stop offset="0.01" stop-color="#58cee8"/><stop offset="0.02" stop-color="#3dc1e3"/><stop offset="0.04" stop-color="#27b6df"/><stop offset="0.06" stop-color="#16aedc"/><stop offset="0.08" stop-color="#0ba8da"/><stop offset="0.11" stop-color="#04a5d8"/><stop offset="0.19" stop-color="#02a4d8"/></linearGradient><linearGradient id="linear-gradient-4" x1="915.08" y1="556.21" x2="915.08" y2="637.33" gradientTransform="translate(551.58 1331.91) rotate(-149.52)" xlink:href="#linear-gradient-2"/><linearGradient id="linear-gradient-5" x1="909.01" y1="633.67" x2="909.01" y2="640.89" xlink:href="#linear-gradient-2"/><linearGradient id="linear-gradient-6" x1="117.47" y1="142.66" x2="163.88" y2="148.36" gradientUnits="userSpaceOnUse"><stop offset="0.02" stop-color="#fff" stop-opacity="0"/><stop offset="0.12" stop-color="#fdf9f8" stop-opacity="0.06"/><stop offset="0.3" stop-color="#f7e9e7" stop-opacity="0.21"/><stop offset="0.54" stop-color="#edcfcb" stop-opacity="0.46"/><stop offset="0.84" stop-color="#e1aca5" stop-opacity="0.8"/><stop offset="1" stop-color="#d9988f"/></linearGradient><linearGradient id="linear-gradient-7" x1="160.79" y1="78.01" x2="117" y2="212.77" gradientUnits="userSpaceOnUse"><stop offset="0.75" stop-color="#fff" stop-opacity="0"/><stop offset="0.79" stop-color="#f7eae8" stop-opacity="0.21"/><stop offset="0.84" stop-color="#eccdc8" stop-opacity="0.49"/><stop offset="0.89" stop-color="#e4b6b0" stop-opacity="0.71"/><stop offset="0.94" stop-color="#dea69e" stop-opacity="0.87"/><stop offset="0.98" stop-color="#da9c93" stop-opacity="0.96"/><stop offset="1" stop-color="#d9988f"/></linearGradient><linearGradient id="linear-gradient-8" x1="445.65" y1="176.93" x2="492.48" y2="185.19" gradientUnits="userSpaceOnUse"><stop offset="0" stop-color="#ff9cb0"/><stop offset="0.05" stop-color="#fd8ea4"/><stop offset="0.2" stop-color="#fa6c89"/><stop offset="0.36" stop-color="#f75173"/><stop offset="0.51" stop-color="#f53e64"/><stop offset="0.67" stop-color="#f3335b"/><stop offset="0.84" stop-color="#f32f58"/></linearGradient><linearGradient id="linear-gradient-9" x1="266.93" y1="217.35" x2="260.51" y2="180.92" gradientUnits="userSpaceOnUse"><stop offset="0" stop-color="#fff" stop-opacity="0"/><stop offset="0.04" stop-color="#fcf6f5" stop-opacity="0.09"/><stop offset="0.18" stop-color="#f3ddda" stop-opacity="0.33"/><stop offset="0.32" stop-color="#ebc8c3" stop-opacity="0.53"/><stop offset="0.46" stop-color="#e4b7b0" stop-opacity="0.7"/><stop offset="0.59" stop-color="#dfa9a2" stop-opacity="0.83"/><stop offset="0.73" stop-color="#dca097" stop-opacity="0.93"/><stop offset="0.87" stop-color="#da9a91" stop-opacity="0.98"/><stop offset="1" stop-color="#d9988f"/></linearGradient><linearGradient id="linear-gradient-10" x1="418.33" y1="179.5" x2="418.33" y2="109.23" gradientUnits="userSpaceOnUse"><stop offset="0.11" stop-color="#d9988f"/><stop offset="0.15" stop-color="#dda49c" stop-opacity="0.88"/><stop offset="0.23" stop-color="#e9c4be" stop-opacity="0.58"/><stop offset="0.35" stop-color="#fbf5f4" stop-opacity="0.1"/><stop offset="0.37" stop-color="#fff" stop-opacity="0"/></linearGradient><linearGradient id="linear-gradient-11" x1="376.73" y1="139.19" x2="466.05" y2="154.94" gradientUnits="userSpaceOnUse"><stop offset="0" stop-color="#d9988f"/><stop offset="0.04" stop-color="#da9c93" stop-opacity="0.96"/><stop offset="0.11" stop-color="#dea69f" stop-opacity="0.86"/><stop offset="0.2" stop-color="#e5b7b1" stop-opacity="0.69"/><stop offset="0.29" stop-color="#edcfcb" stop-opacity="0.46"/><stop offset="0.4" stop-color="#f8edec" stop-opacity="0.17"/><stop offset="0.45" stop-color="#fff" stop-opacity="0"/></linearGradient><linearGradient id="linear-gradient-12" x1="308.63" y1="105.73" x2="394.58" y2="155.35" gradientUnits="userSpaceOnUse"><stop offset="0.37" stop-color="#f32f58"/><stop offset="1" stop-color="#ff9cb0"/></linearGradient><linearGradient id="linear-gradient-13" x1="197.68" y1="193.14" x2="243.28" y2="209.74" gradientUnits="userSpaceOnUse"><stop offset="0" stop-color="#d9988f"/><stop offset="0.16" stop-color="#da9a91" stop-opacity="0.98"/><stop offset="0.3" stop-color="#db9f96" stop-opacity="0.94"/><stop offset="0.43" stop-color="#dea79f" stop-opacity="0.86"/><stop offset="0.56" stop-color="#e3b2ac" stop-opacity="0.74"/><stop offset="0.68" stop-color="#e8c2bc" stop-opacity="0.6"/><stop offset="0.79" stop-color="#efd4d0" stop-opacity="0.42"/><stop offset="0.9" stop-color="#f7eae8" stop-opacity="0.21"/><stop offset="1" stop-color="#fff" stop-opacity="0"/></linearGradient><linearGradient id="linear-gradient-14" x1="316.11" y1="101.7" x2="374.63" y2="171.43" gradientUnits="userSpaceOnUse"><stop offset="0" stop-color="#763a4a"/><stop offset="0.09" stop-color="#885462" stop-opacity="0.87"/><stop offset="0.43" stop-color="#c8b0b6" stop-opacity="0.4"/><stop offset="0.68" stop-color="#f0e9eb" stop-opacity="0.11"/><stop offset="0.82" stop-color="#fff" stop-opacity="0"/></linearGradient><linearGradient id="Shorts_gradient" x1="276.46" y1="60.76" x2="274.91" y2="52" gradientUnits="userSpaceOnUse"><stop offset="0" stop-color="#ff9cb0"/><stop offset="0.06" stop-color="#fd8ea4"/><stop offset="0.24" stop-color="#fa6c89"/><stop offset="0.42" stop-color="#f75173"/><stop offset="0.61" stop-color="#f53e64"/><stop offset="0.8" stop-color="#f3335b"/><stop offset="1" stop-color="#f32f58"/></linearGradient><linearGradient id="linear-gradient-15" x1="246.08" y1="191.35" x2="251.77" y2="126.24" xlink:href="#Shorts_gradient"/><linearGradient id="linear-gradient-16" x1="458.91" y1="157.03" x2="463.54" y2="180.84" gradientUnits="userSpaceOnUse"><stop offset="0" stop-color="#eff5ff"/><stop offset="0.51" stop-color="#aed2f3"/></linearGradient><linearGradient id="Shorts" x1="236.91" y1="131.74" x2="264.89" y2="180.2" gradientUnits="userSpaceOnUse"><stop offset="0" stop-color="#763a4a"/><stop offset="0.16" stop-color="#834d5b" stop-opacity="0.9"/><stop offset="0.44" stop-color="#a6808a" stop-opacity="0.65"/><stop offset="0.81" stop-color="#dfd1d5" stop-opacity="0.23"/><stop offset="1" stop-color="#fff" stop-opacity="0"/></linearGradient><linearGradient id="linear-gradient-17" x1="243.33" y1="146.7" x2="258.92" y2="48.3" gradientUnits="userSpaceOnUse"><stop offset="0.29" stop-color="#02a4d8"/><stop offset="1" stop-color="#7adeee"/></linearGradient><linearGradient id="linear-gradient-18" x1="134.74" y1="29.26" x2="209.28" y2="29.26" gradientUnits="userSpaceOnUse"><stop offset="0" stop-color="#304260"/><stop offset="0.62" stop-color="#28263b"/><stop offset="1" stop-color="#272438"/></linearGradient><linearGradient id="linear-gradient-19" x1="208.3" y1="46.08" x2="184.14" y2="25.81" gradientUnits="userSpaceOnUse"><stop offset="0" stop-color="#304260"/><stop offset="1" stop-color="#272438"/></linearGradient><linearGradient id="linear-gradient-20" x1="185.57" y1="79.2" x2="201.62" y2="87.73" gradientUnits="userSpaceOnUse"><stop offset="0" stop-color="#d9988f"/><stop offset="0.28" stop-color="#d99990" stop-opacity="0.99"/><stop offset="0.42" stop-color="#db9d94" stop-opacity="0.95"/><stop offset="0.53" stop-color="#dda39b" stop-opacity="0.89"/><stop offset="0.63" stop-color="#e0aca5" stop-opacity="0.8"/><stop offset="0.72" stop-color="#e5b8b2" stop-opacity="0.69"/><stop offset="0.8" stop-color="#eac7c2" stop-opacity="0.55"/><stop offset="0.87" stop-color="#f1d8d4" stop-opacity="0.38"/><stop offset="0.94" stop-color="#f8ebe9" stop-opacity="0.19"/><stop offset="1" stop-color="#fff" stop-opacity="0"/></linearGradient><linearGradient id="linear-gradient-21" x1="227.28" y1="93.4" x2="228.76" y2="135.59" gradientUnits="userSpaceOnUse"><stop offset="0.02" stop-color="#d9988f"/><stop offset="0.22" stop-color="#e4b6af" stop-opacity="0.71"/><stop offset="0.42" stop-color="#eed0cc" stop-opacity="0.46"/><stop offset="0.6" stop-color="#f5e4e2" stop-opacity="0.26"/><stop offset="0.76" stop-color="#fbf3f2" stop-opacity="0.12"/><stop offset="0.9" stop-color="#fefcfc" stop-opacity="0.03"/><stop offset="1" stop-color="#fff" stop-opacity="0"/></linearGradient><radialGradient id="radial-gradient" cx="114.93" cy="215.7" r="18.85" gradientUnits="userSpaceOnUse"><stop offset="0" stop-color="#fff" stop-opacity="0"/><stop offset="0.02" stop-color="#fcf6f5" stop-opacity="0.09"/><stop offset="0.06" stop-color="#f4e2e0" stop-opacity="0.28"/><stop offset="0.11" stop-color="#eed1cc" stop-opacity="0.45"/><stop offset="0.17" stop-color="#e8c1bc" stop-opacity="0.6"/><stop offset="0.23" stop-color="#e3b4ae" stop-opacity="0.73"/><stop offset="0.3" stop-color="#e0aaa2" stop-opacity="0.83"/><stop offset="0.38" stop-color="#dda29a" stop-opacity="0.91"/><stop offset="0.48" stop-color="#db9c93" stop-opacity="0.96"/><stop offset="0.62" stop-color="#d99990" stop-opacity="0.99"/><stop offset="1" stop-color="#d9988f"/></radialGradient><linearGradient id="linear-gradient-22" x1="294.97" y1="177.77" x2="295.43" y2="204.44" gradientUnits="userSpaceOnUse"><stop offset="0.04" stop-color="#eff5ff"/><stop offset="0.46" stop-color="#aed2f3"/></linearGradient><linearGradient id="linear-gradient-23" x1="267.32" y1="227.56" x2="333.86" y2="189.15" gradientUnits="userSpaceOnUse"><stop offset="0.55" stop-color="#f32f58"/><stop offset="1" stop-color="#ff9cb0"/></linearGradient><linearGradient id="linear-gradient-24" x1="221.69" y1="186.33" x2="166.81" y2="153.36" gradientUnits="userSpaceOnUse"><stop offset="0" stop-color="#d9988f"/><stop offset="0.09" stop-color="#db9e96" stop-opacity="0.94"/><stop offset="0.26" stop-color="#e1afa7" stop-opacity="0.78"/><stop offset="0.49" stop-color="#ebc9c4" stop-opacity="0.52"/><stop offset="0.77" stop-color="#f8edec" stop-opacity="0.17"/><stop offset="0.9" stop-color="#fff" stop-opacity="0"/></linearGradient></defs><title>Asset 2badminton</title><g class="cls-2"><g id="Layer_2" data-name="Layer 2"><g id="Badminton-2" data-name="Badminton"><path class="cls-3" d="M153.83,75.37c-9.45,1.57-17.32,10.23-18.89,15-1.34,4-5.51,15.74-3.15,38.57,1.62,15.68-11.81,11-11.81,48.81,0,3.94-7.87,11-10.23,28.34,0,0,11,6.3,12.6,7.87s5.51-.79,5.51-.79,3.94-.79,7.87-6.3,1.57-18.11,4.72-21.26,11-11.81,12.6-16.53-2.36-11,2.36-18.11,4.72-35.43,4.72-35.43l11.81-32.28Z"/><g class="cls-4"><line class="cls-5" x1="67.36" y1="395.24" x2="118.68" y2="334.5"/><line class="cls-5" x1="64.29" y1="393.98" x2="115.61" y2="333.24"/><line class="cls-5" x1="61.22" y1="392.72" x2="112.54" y2="331.98"/><line class="cls-5" x1="58.14" y1="391.46" x2="109.46" y2="330.72"/><line class="cls-5" x1="55.07" y1="390.2" x2="106.39" y2="329.46"/><line class="cls-5" x1="52" y1="388.94" x2="103.32" y2="328.2"/><line class="cls-5" x1="48.92" y1="387.68" x2="100.24" y2="326.94"/><line class="cls-5" x1="45.85" y1="386.42" x2="97.17" y2="325.68"/><line class="cls-5" x1="42.78" y1="385.16" x2="94.1" y2="324.42"/><line class="cls-5" x1="39.7" y1="383.9" x2="91.02" y2="323.16"/><line class="cls-5" x1="36.63" y1="382.64" x2="87.95" y2="321.91"/><line class="cls-5" x1="33.56" y1="381.38" x2="84.88" y2="320.65"/><line class="cls-5" x1="30.48" y1="380.12" x2="81.8" y2="319.39"/><line class="cls-5" x1="27.41" y1="378.86" x2="78.73" y2="318.13"/><line class="cls-5" x1="24.34" y1="377.6" x2="75.66" y2="316.87"/><line class="cls-5" x1="21.26" y1="376.34" x2="72.58" y2="315.61"/><line class="cls-5" x1="18.19" y1="375.08" x2="69.51" y2="314.35"/><line class="cls-5" x1="15.12" y1="373.82" x2="66.44" y2="313.09"/><line class="cls-5" x1="12.04" y1="372.56" x2="63.36" y2="311.83"/><line class="cls-6" x1="0.06" y1="361.35" x2="87.26" y2="397.09"/><line class="cls-6" x1="1.87" y1="359.21" x2="89.07" y2="394.95"/><line class="cls-6" x1="3.67" y1="357.07" x2="90.88" y2="392.81"/><line class="cls-6" x1="5.48" y1="354.93" x2="92.69" y2="390.67"/><line class="cls-6" x1="7.29" y1="352.79" x2="94.5" y2="388.53"/><line class="cls-6" x1="9.1" y1="350.64" x2="96.31" y2="386.39"/><line class="cls-6" x1="10.91" y1="348.5" x2="98.11" y2="384.25"/><line class="cls-6" x1="12.72" y1="346.36" x2="99.92" y2="382.11"/><line class="cls-6" x1="14.53" y1="344.22" x2="101.73" y2="379.97"/><line class="cls-6" x1="16.34" y1="342.08" x2="103.54" y2="377.83"/><line class="cls-6" x1="18.14" y1="339.94" x2="105.35" y2="375.69"/><line class="cls-6" x1="19.95" y1="337.8" x2="107.16" y2="373.55"/><line class="cls-6" x1="21.76" y1="335.66" x2="108.97" y2="371.41"/><line class="cls-6" x1="23.57" y1="333.52" x2="110.77" y2="369.26"/><line class="cls-6" x1="25.38" y1="331.38" x2="112.58" y2="367.12"/><line class="cls-6" x1="27.19" y1="329.24" x2="114.39" y2="364.98"/><line class="cls-6" x1="29" y1="327.1" x2="116.2" y2="362.84"/><line class="cls-6" x1="30.8" y1="324.96" x2="118.01" y2="360.7"/><line class="cls-6" x1="32.61" y1="322.82" x2="119.82" y2="358.56"/><line class="cls-6" x1="34.42" y1="320.68" x2="121.63" y2="356.42"/><line class="cls-6" x1="36.23" y1="318.54" x2="123.44" y2="354.28"/><line class="cls-6" x1="38.22" y1="316.18" x2="125.42" y2="351.93"/><line class="cls-6" x1="40.03" y1="314.04" x2="127.23" y2="349.79"/><line class="cls-6" x1="41.84" y1="311.9" x2="129.04" y2="347.65"/><line class="cls-6" x1="43.65" y1="309.76" x2="130.85" y2="345.5"/></g><path class="cls-7" d="M153.61,256.09l24.28-28.74c.29-.34.13-.79-.37-1L169.26,223a1.31,1.31,0,0,0-1.42.26l-27.05,32C145.05,255.58,149.33,255.87,153.61,256.09Z"/><polygon class="cls-8" points="132.67 270.58 135.54 271.75 91.38 324.02 88.5 322.85 132.67 270.58"/><polygon class="cls-9" points="139 258.23 147.97 261.9 132.35 276.5 128.26 274.83 139 258.23"/><path class="cls-10" d="M168.88,222.83l9,3.7c.29.12.38.37.21.57l-30.88,36.55a.76.76,0,0,1-.82.15l-9-3.7c-.29-.12-.38-.37-.21-.57L168.06,223A.76.76,0,0,1,168.88,222.83Z"/><path class="cls-11" d="M38.85,384.42c19.45,8,49.11-2,63.43-19s8.64-35.35-10.8-43.32-45.3-2.5-59.62,14.45S19.41,376.45,38.85,384.42Zm51-60.39c18.52,7.59,22.68,24.92,9.68,40.3-13.93,16.49-42.1,25.16-59.1,18.19s-19.8-28.33-5.87-44.82C47.59,322.32,71.36,316.44,89.88,324Z"/><polygon class="cls-12" points="89.64 323.65 94.13 325.49 95.37 319.44 93.76 318.77 92.14 318.11 85.15 321.81 89.64 323.65"/><path class="cls-13" d="M153.73,75.72c-9.45,1.57-17.32,10.23-18.89,15-1.34,4-5.51,15.74-3.15,38.57,1.62,15.68-11.81,11-11.81,48.81,0,3.94-7.87,11-10.23,28.34,0,0,11,6.3,12.6,7.87s5.51-.79,5.51-.79,3.94-.79,7.87-6.3,1.57-18.11,4.72-21.26,11-11.81,12.6-16.53-2.36-11,2.36-18.11S160,115.87,160,115.87l11.81-32.28Z"/><path class="cls-14" d="M153.73,75.72c-9.45,1.57-17.32,10.23-18.89,15-1.34,4-5.51,15.74-3.15,38.57,1.62,15.68-11.81,11-11.81,48.81,0,3.94-7.87,11-10.23,28.34,0,0,11,6.3,12.6,7.87s5.51-.79,5.51-.79,3.94-.79,7.87-6.3,1.57-18.11,4.72-21.26,11-11.81,12.6-16.53-2.36-11,2.36-18.11S160,115.87,160,115.87l11.81-32.28Z"/><path class="cls-15" d="M449,160.39c.79-14.17,4-13.72,7.09-15,3.94-1.57,5.51-1.57,13.38-1.57s13.38,3.15,13.38,11.81c0,0,0,7.87-.79,11.81s1.57,3.15,3.94,5.51,7.87,6.3,5.51,17.32-11,23.62-15.74,26.77-9.45,2.36-14.17-3.94-7.09-11.81-6.3-15.74a13.26,13.26,0,0,1,3.15-6.3s-4.72-3.94-4.72-6.3S449,160.39,449,160.39Z"/><path class="cls-3" d="M208.15,169.84c-7.87,15-12.6,26.77-12.6,34.64S194.76,218.65,194,221a8.27,8.27,0,0,0,3.15,8.66c3.15,2.36,5.51,5.51,8.66,6.3s14.17-.79,16.53-2.36,12.6-12.6,15.74-12.6,11,2.36,26.77-7.87,27.55-18.89,27.55-18.89l-5.51-15h-6.3a34.32,34.32,0,0,1-9.45,1.57c-4.72,0-18.11-.79-22.83,4.72,0,0,1.57-2.36,3.94-10.23S208.15,169.84,208.15,169.84Z"/><path class="cls-16" d="M292.38,194.24s-11.81,8.66-27.55,18.9S241.21,221,238.06,221c3.15,0,10.38-31.79,10.24-35.43l0,0c4.75-5.48,18.09-4.69,22.81-4.69a34.17,34.17,0,0,0,9.44-1.58h6.3Z"/><path class="cls-3" d="M379,164.53c4.72,7.87,12.23,8.31,18.53,8.31s5.88-.64,9-.64,8.66,3.94,16.53,6.3,33.85,0,37.79-1.57,1.57-13.38-3.94-15.74-9.45-3.94-15-10.23-10.23-11.81-18.11-15-19.68,0-19.68,0-17.32-18.11-19.68-26-10.63,46.84-10.63,46.84Z"/><path class="cls-17" d="M379,164.53c4.72,7.87,12.23,8.31,18.53,8.31s5.88-.64,9-.64,8.66,3.94,16.53,6.3,33.85,0,37.79-1.57,1.57-13.38-3.94-15.74-9.45-3.94-15-10.23-10.23-11.81-18.11-15-19.68,0-19.68,0-17.32-18.11-19.68-26-10.63,46.84-10.63,46.84Z"/><path class="cls-18" d="M379,164.53c4.72,7.87,12.23,8.31,18.53,8.31s5.88-.64,9-.64,8.66,3.94,16.53,6.3,33.85,0,37.79-1.57,1.57-13.38-3.94-15.74-9.45-3.94-15-10.23-10.23-11.81-18.11-15-19.68,0-19.68,0-17.32-18.11-19.68-26-10.63,46.84-10.63,46.84Z"/><path class="cls-19" d="M347.49,75.37s17.32,7.09,22,12.6a179.62,179.62,0,0,0,17.32,17.32c4.72,3.94,3.94,3.94,3.94,9.45s-1.57,14.17,1.57,20.47,6.3,11.81,4.72,15.74-16.16,15.33-18.52,15.33c-14.17,0-21.63-6.67-26.35-7.46s-12.46-5-19.62-6.23c-2.67-.46-17.88-6.66-47.4-6.27l36.31-37.1Z"/><path class="cls-20" d="M252.23,175.35c-2.21,7.38-3.73,9.91-3.91,10.2l0,0c.14,3.64-7.09,35.43-10.24,35.43s-13.38,11-15.74,12.59-13.39,3.15-16.54,2.37-5.51-3.94-8.65-6.3A8.26,8.26,0,0,1,194,221c.78-2.36,1.57-8.66,1.57-16.53s4.72-19.69,12.6-34.64C208.15,169.84,254.59,167.47,252.23,175.35Z"/><path class="cls-21" d="M347.49,75.37s17.32,7.09,22,12.6a179.62,179.62,0,0,0,17.32,17.32c4.72,3.94,3.94,3.94,3.94,9.45s-1.57,14.17,1.57,20.47,6.3,11.81,4.72,15.74-16.16,15.33-18.52,15.33c-14.17,0-21.63-6.67-26.35-7.46s-12.46-5-19.62-6.23c-2.67-.46-17.88-6.66-47.4-6.27l36.31-37.1Z"/><path class="cls-22" d="M288.19,57.82c-3.09,3.16-15.46,1.88-24.95-2.5a38.9,38.9,0,0,0,4.73-2C272,51.56,286.4,56.09,288.19,57.82Z"/><path class="cls-23" d="M225.46,138.35l-26.77,37s-.49-1.68,1.72,2.31,3,10.29,6.94,10.29,11-3.94,16.53-3.94,11,.79,15,0,9.45-8.66,15-8.66,11,1.57,17.32,0,6.3-2.36,7.87-4.72-.79-12.6,3.15-18.11,18.11-22,18.11-22Z"/><path class="cls-24" d="M455.34,162.75s-4.52-4.13-3-3.64c0,0-.1-1.87,2.26-.3s0,1.57,2.36,1.57,3.94-.79,6.3,0,4.72,1.57,5.51,3.94a22.34,22.34,0,0,0,4.72,7.09c1.57,1.57,1.57,2.36.79,3.94a14.69,14.69,0,0,1-2.36,3.15,10.28,10.28,0,0,0-6.3-.79c-3.15.79-10.23,1.57-10.23,4.72,0,0-4.72-1.57-4.72-3.15s2.36-3.15,3.15-3.94A13.68,13.68,0,0,0,455.34,162.75Z"/><path class="cls-25" d="M225.46,138.35l-26.77,37s-.49-1.68,1.72,2.31,3,10.29,6.94,10.29,11-3.94,16.53-3.94,11,.79,15,0,9.45-8.66,15-8.66,11,1.57,17.32,0,6.3-2.36,7.87-4.72-.79-12.6,3.15-18.11,18.11-22,18.11-22Z"/><path class="cls-26" d="M364.81,115.21c-6.3,8.66-26.11,23.93-29.52,25.5s-27.21,5.78-33.51,4.21-14.12.52-18.05-1.06-8.66-3.94-26,0S232,139.59,232,139.59s-29.37,3.48-34.88-1.24-7.87-7.87-11-6.3-7.09-.79-8.66-1.57-7.09-3.15-11-.79-6.88.79-6.88.79-.2-1.57-1.78-9.45c-.57-2.85-11.64-35.1-17.32-37-1-.32-2.36.79-3.94,3.15-.44.67-1.57,3.15-1.57,3.15s-.87-1,.79-3.94c3.15-5.51,12.6-10.23,15.74-10.23,4.69,0,14.17,11.81,14.17,11.81l40.94-31.49a30.65,30.65,0,0,0,15,.79c8.66-1.57,14.17.79,29.13-.79l2-.2c7.49-.73,9.1-.57,10.61-1,11-.79,34.65,4.31,37.8,4.31s8.9,3.07,20.47.79a36.59,36.59,0,0,1,17.71,1s9.05,1.38,16.93,12.4S371.1,106.55,364.81,115.21Z"/><path class="cls-3" d="M142.8,36c3.31-8.27,17.32-11,30.7-12.6s14.17,3.94,20.47,9.45a28.14,28.14,0,0,0,14.17,6.3l.79,3.15s9.45,4.72-4.72,21.26a5.9,5.9,0,0,1,2.36,4.72c0,5-11,44.87-21.26,34.64l-5.51-7.87s-4.72,3.15-7.87,2.36-18.89-15-22-21.26-1.57-11.81-2.36-13.38S139.66,43.88,142.8,36Z"/><path class="cls-3" d="M199.49,102.14c-6.08,1.82-4.72,9.45-3.94,15s3.15,15.74-.79,19.68-17.32,17.32-20.47,23.62-7.87,20.47-10.23,24.4S149.89,199,148.32,209.2s-4.49,8.65-3.09,27.41c.19,2.49,3.63,9.57,4.08,10.67l2.35-3.13c.53-.28,2.94,3.7,4.29,5.58,1.15,1.6,1.36,2.65,2.15,2.65,1.57,0,5-1.06,5.59-3.17.28-1.07-1.57-2.18-.55-1.67a4.44,4.44,0,0,0,3.29,1c.83,0,3.15-1.57,3.15-3.15a4.84,4.84,0,0,0-1.57-3.15s1.48,2.13,3.15,1.57c2.36-.79,3.94-2.36,3.15-3.94l-.79-1.57a4,4,0,0,0,2.23.3,3.54,3.54,0,0,0,1.71-1.88c.4-2.46,0-3.94-1.57-10.23s.79-6.3.79-8.66-3.94-7.09-2.36-8.66,18.89-10.23,22-21.26,1.57-8.66,7.87-12.6,29.92-36.21,31.49-43.3c0,0,8.66,3.15,16.53-2.36s11.24-11.35,9.45-14.17c-5.51-8.66-14.17-24.4-25.19-19.68-8,3.43-14.17-5.51-19.68-.79C203.18,106.73,207.36,99.78,199.49,102.14Z"/><path class="cls-27" d="M134.93,44.67s-.79-.79.79-3.94.79-8.66,1.57-12.6,3.94-7.09,4.72-7.87,2.36-.79,4.72-2.36,3.94-5.51,4.72-7.09,3.94-3.94,7.87-6.3S168,1.37,171.15.58s10.3-1.53,16.53,3.15,6.3,7.09,7.87,11.81c0,0,6.3,0,9.45,4.72s3.15,6.3,3.94,10.23,0,11.81,0,11.81-7.09-2.36-9.45,8.66a27.93,27.93,0,0,0-.79,5.51c0,2.36-1.57,2.36-3.94,1.57s-.79-3.94-.79-3.94,2.36-6.3,0-10.23c-.62-1-.79-1.57-4.72-.79s-6.3-11-7.09-11.81-1.57-1.57-2.36-1.57c0,0-4.72,3.94-7.87,4.72s-10.23.79-12.6,0S157,35.22,155.4,36s-1.57-1.57-3.94,0-6.3.79-12.6,9.45C137.2,47.75,134.93,44.67,134.93,44.67Z"/><path class="cls-28" d="M195.55,15.54s6.3,0,9.45,4.72,3.15,6.3,3.94,10.23,0,11.81,0,11.81-7.09-2.36-9.45,8.66a27.93,27.93,0,0,0-.79,5.51c0,2.36-1.57,2.36-3.94,1.57s-.79-3.94-.79-3.94,2.36-6.3,0-10.23c-.62-1-.71-.79-4.72-.79s-6-11.46-7.09-11.81C179.8,30.5,190,17.11,195.55,15.54Z"/><path class="cls-3" d="M179.8,95.05c11-7.09,17.32-15.67,17.32-19.68,0-5.51,1.57-11-1.57-15,0,0,6.3,2.36,7.09,6.3S205,79.31,198.7,85.6,179.8,95.05,179.8,95.05Z"/><path class="cls-29" d="M179.8,95.05c11-7.09,17.33-15.67,17.33-19.68,0-5.51,1.58-11-1.58-15,0,0,8.65,8.66,9.43,12.6s-6.29,23.62-12.6,29.92S179.8,95.05,179.8,95.05Z"/><path class="cls-30" d="M252.23,129.69c-7.87,5.51-16.53,2.36-16.53,2.36l-40.94,4.72c3.94-3.94,1.57-14.17.79-19.68s-2.14-13.13,3.94-15c7.87-2.36,3.69,4.6,17.32-7.09,3.13-2.69,6.49-1,10.27.41,2.86,1,6,1.85,9.41.38,11-4.72,19.68,11,25.19,19.68C263.47,118.34,260.1,124.18,252.23,129.69Z"/><path class="cls-3" d="M109.74,205.27c-2,.66-8.57,3.76-9.45,5.51-.79,1.57-.6,2-1.57,3.94a6,6,0,0,0-3.15.79,8.4,8.4,0,0,0-2.4,3.24,10.93,10.93,0,0,0-1.54,3.84c-.12,1.23-.39.8,0,2.36,0,0-1.58,1.51-2.36,2.36-.59.64-.33,2-.79,3.15-.3.74-1,1.16-.79,2.36a13.47,13.47,0,0,0,4.72,8.66c1.57.79,3.71.68,3.15-.79s-2.1-2-2.36-3.94a13.71,13.71,0,0,0,3.15,2.36c2.31,1.17,3.93,2.36,6.3,1.57a1.65,1.65,0,0,0,0-3.15c-2.26-1.13-5.66-3.48-5.51-3.94.06-.18,2.43,1.06,3,1.08A52.21,52.21,0,0,1,110.53,236c6.3,1.57,10.1-6.35,11-8.66,1.57-3.94-.79-3.94,3.94-9.45,1.45-1.69,0-6.3,0-6.3s5-6.1,5.51-7.87c.42-1.42-.38-4.23.66-5.9,1.71-2.76-2.13-3.64-5.38-.39-1.57,1.57-1.57,4.72-1.57,4.72a15.46,15.46,0,0,0-4.21,4.72c-.84,1.44-.52.79-2.09,0C116.17,205.73,112.1,204.48,109.74,205.27Z"/><path class="cls-31" d="M109.74,210.78s-3.94,1.57-4.72,2.36c-.56.56-1.57,1.57,0,3.15S109,219.44,109,221s-.79,2.36-1.57,2.36-7.09-3.94-7.09-3.94-1.57,0-2.36,3.15c-.19.76-.33.92.79,3.15,2.36,4.72,5.51,4.72,4.72,7.09-.35,1.06-2.36,1.57-3.15,1.57-.39,0-.2.29-.2.29s4.42.2,7.82.74,3,.79,4.77.66,5.36-.7,8.61-8a12.3,12.3,0,0,0,1-5.48c0-1.1,1.57-3.15,2.36-3.94,2.36-2.36.79-7.09.79-7.09s5.51-7.09,5.51-7.87.2-3,.1-3.44-.08-1,.7-2.7-.22-2.58-2.08-2.15a6.68,6.68,0,0,0-4.42,3.58c-.59,1.57,1,3.15-.59,5.51s-.79,5.51-3.15,7.09-3.94,4.72-5.51,9.45-7.36,15.28-11,7.09c-.47-1-1.57-2.36,1.57-3.15s3.15-2.36,3.94-3.94,2.36-6.3,2.36-7.87S109.74,210.78,109.74,210.78Z"/><path class="cls-32" d="M278.21,180.86c-3.38-2.17,3.94-2.36,7.09-2.36,2.55,0,8.66-.79,13.38-.79H301c8.66,0,10.23,1.57,10.23,1.57l1.57,11-4.72,11-15,3.15-3.94-1.57a8,8,0,0,1-.05-3.45,10.25,10.25,0,0,1,1.17-3.18s-3.48,3.48-5.05,3.48S289.23,187.95,278.21,180.86Z"/><path class="cls-33" d="M299.47,176.92c-1.92-2.78,3.15-3.94,7.87-3.94,5.51,0,11.81-1.57,19.68,5.51,9.53,8.57-.79,24.4-2.36,26.77s-10.23,7.09-11,10.23-3.94,6.3-4.72,14.17-3.94,11-7.87,12.6-20.47,2.36-21.26,1.57-5.51-.79-7.09-8.66,8.66-16.53,8.66-16.53-.79-2.36,2.36-7.87,6.16-11.29,5.44-13.52l1.64-1.44s-2.36,4.72-.79,6.3a3.93,3.93,0,0,0,3.22,1.29s14.1-4.44,16.46-12.31,2.36-11.81-3.15-12.6C304.15,178.16,300.41,178.3,299.47,176.92Z"/><path class="cls-34" d="M199.49,102.14c-6.08,1.82-4.72,9.45-3.94,15s3.15,15.74-.79,19.68-17.32,17.32-20.47,23.62-7.87,20.47-10.23,24.4S149.89,199,148.32,209.2s-4.49,7.73-3.09,27.41c.18,2.49,3.63,9.57,4.08,10.67l2.35-3.13c.53-.28,2.91,3.65,4.29,5.58,1.13,1.59,1.36,2.65,2.15,2.65,1.57,0,5-1.06,5.59-3.17.28-1.07-1.57-2.18-.55-1.67a4.44,4.44,0,0,0,3.29,1c.83,0,3.15-1.57,3.15-3.15a4.84,4.84,0,0,0-1.57-3.15s1.48,2.13,3.15,1.57c2.36-.79,3.94-2.36,3.15-3.94l-.79-1.57a4,4,0,0,0,2.23.3,3.54,3.54,0,0,0,1.71-1.88c.4-2.46,0-3.94-1.57-10.23s.79-6.3.79-8.66-3.94-7.09-2.36-8.66,18.89-10.23,22-21.26,1.57-8.66,7.87-12.6,29.92-36.21,31.49-43.3c0,0,8.66,3.15,16.53-2.36s11.24-11.35,9.45-14.17c-5.51-8.66-14.17-24.4-25.19-19.68-8,3.43-14.17-5.51-19.68-.79C203.18,106.73,207.36,99.78,199.49,102.14Z"/></g></g></g></svg>