<svg xmlns="http://www.w3.org/2000/svg" xmlns:xlink="http://www.w3.org/1999/xlink" viewBox="0 0 41.07 50.75"><defs><style>.cls-1{fill:url(#linear-gradient);}.cls-2{fill:url(#linear-gradient-2);}.cls-3{fill:url(#linear-gradient-3);}.cls-4{fill:url(#linear-gradient-4);}.cls-5{fill:url(#linear-gradient-5);}.cls-6{fill:url(#linear-gradient-6);}.cls-7{fill:url(#linear-gradient-7);}.cls-8{fill:url(#linear-gradient-8);}.cls-9{fill:url(#linear-gradient-9);}.cls-10{fill:url(#linear-gradient-10);}.cls-11{fill:url(#linear-gradient-11);}.cls-12{fill:url(#linear-gradient-12);}.cls-13{fill:url(#linear-gradient-13);}.cls-14{fill:url(#linear-gradient-14);}</style><linearGradient id="linear-gradient" x1="168.8" y1="-477.89" x2="168.8" y2="-477.21" gradientTransform="matrix(0.88, -0.52, 0.51, 0.86, 124.1, 532.08)" gradientUnits="userSpaceOnUse"><stop offset="0" stop-color="#eff5ff"/><stop offset="1" stop-color="#c7e0f8"/></linearGradient><linearGradient id="linear-gradient-2" x1="168.8" y1="-472.72" x2="168.8" y2="-472.04" gradientTransform="translate(-141.52 510.29) scale(1.02 1)" xlink:href="#linear-gradient"/><linearGradient id="linear-gradient-3" x1="159.9" y1="-493.49" x2="163.3" y2="-470.11" xlink:href="#linear-gradient"/><linearGradient id="linear-gradient-4" x1="163.05" y1="-493.02" x2="166.37" y2="-470.16" xlink:href="#linear-gradient"/><linearGradient id="linear-gradient-5" x1="166.11" y1="-492.54" x2="169.35" y2="-470.2" xlink:href="#linear-gradient"/><linearGradient id="linear-gradient-6" x1="169.17" y1="-492.06" x2="172.34" y2="-470.24" xlink:href="#linear-gradient"/><linearGradient id="linear-gradient-7" x1="172.23" y1="-491.58" x2="175.32" y2="-470.28" xlink:href="#linear-gradient"/><linearGradient id="linear-gradient-8" x1="156.07" y1="-497.37" x2="160.76" y2="-465.04" xlink:href="#linear-gradient"/><linearGradient id="linear-gradient-9" x1="162.49" y1="-497.38" x2="167.11" y2="-465.57" xlink:href="#linear-gradient"/><linearGradient id="linear-gradient-10" x1="169.03" y1="-497.41" x2="173.57" y2="-466.13" xlink:href="#linear-gradient"/><linearGradient id="linear-gradient-11" x1="174.1" y1="-497.23" x2="178.56" y2="-466.46" xlink:href="#linear-gradient"/><linearGradient id="linear-gradient-12" x1="179.17" y1="-497.05" x2="183.56" y2="-466.8" xlink:href="#linear-gradient"/><linearGradient id="linear-gradient-13" x1="162.94" y1="-468.43" x2="174.67" y2="-468.43" gradientTransform="translate(-139.45 509.73) scale(1.02 1)" gradientUnits="userSpaceOnUse"><stop offset="0" stop-color="#ff9cb0"/><stop offset="0.06" stop-color="#fd8ea4"/><stop offset="0.24" stop-color="#fa6c89"/><stop offset="0.42" stop-color="#f75173"/><stop offset="0.61" stop-color="#f53e64"/><stop offset="0.8" stop-color="#f3335b"/><stop offset="1" stop-color="#f32f58"/></linearGradient><linearGradient id="linear-gradient-14" x1="168.77" y1="-465.61" x2="169.77" y2="-458.75" xlink:href="#linear-gradient"/></defs><title>Asset 5shuttle</title><g id="Layer_2" data-name="Layer 2"><g id="Badminton"><polygon class="cls-1" points="34.23 30.38 22.82 37.16 21.74 36.74 34.37 29.23 34.23 30.38"/><rect class="cls-2" x="24.93" y="37.37" width="12.01" height="0.91" transform="translate(-14.98 21.12) rotate(-30.73)"/><polygon class="cls-3" points="22.12 37.22 27.75 43.31 28.24 43.01 22.77 36.84 22.12 37.22"/><polygon class="cls-4" points="25.1 35.45 30.02 41.95 30.51 41.66 25.74 35.07 25.1 35.45"/><polygon class="cls-5" points="28.08 33.68 32.3 40.6 32.79 40.31 28.72 33.3 28.08 33.68"/><polygon class="cls-6" points="31.05 31.91 34.57 39.25 35.06 38.96 31.7 31.53 31.05 31.91"/><polygon class="cls-7" points="34.03 30.14 36.84 37.9 37.34 37.61 34.68 29.76 34.03 30.14"/><polygon class="cls-8" points="23.07 36.85 7.84 19.24 0 15.61 1.94 22.74 22.25 37.34 23.07 36.85"/><polygon class="cls-9" points="25.98 35.12 13.78 15.71 6.57 11.71 7.88 19.21 25.16 35.61 25.98 35.12"/><polygon class="cls-10" points="28.9 33.38 19.72 12.17 13.13 7.81 13.82 15.68 28.07 33.88 28.9 33.38"/><polygon class="cls-11" points="31.81 31.65 25.66 8.64 19.7 3.9 19.76 12.15 30.98 32.15 31.81 31.65"/><polygon class="cls-12" points="34.72 29.92 31.6 5.11 26.27 0 25.71 8.62 33.89 30.41 34.72 29.92"/><rect class="cls-13" x="27.01" y="39.75" width="11.98" height="3.1" transform="translate(-16.47 22.66) rotate(-30.73)"/><path class="cls-14" d="M38.11,49.89h0a5.93,5.93,0,0,1-8.14-2L28.6,45.63l10.3-6.12,1.36,2.28A5.93,5.93,0,0,1,38.11,49.89Z"/></g></g></svg>