<svg xmlns="http://www.w3.org/2000/svg" xmlns:xlink="http://www.w3.org/1999/xlink" viewBox="0 0 66.82 73.72"><defs><style>.cls-1{isolation:isolate;}.cls-2{fill:url(#linear-gradient);}.cls-10,.cls-12,.cls-19,.cls-23,.cls-26,.cls-27,.cls-28,.cls-3,.cls-30,.cls-32,.cls-34,.cls-35,.cls-36,.cls-37,.cls-38,.cls-39,.cls-41,.cls-42,.cls-43,.cls-5,.cls-7,.cls-8,.cls-9{mix-blend-mode:multiply;}.cls-3{fill:url(#linear-gradient-2);}.cls-4{fill:url(#linear-gradient-3);}.cls-5{fill:url(#linear-gradient-4);}.cls-6{fill:#fec1b2;}.cls-7{fill:url(#linear-gradient-5);}.cls-8{fill:url(#linear-gradient-6);}.cls-9{fill:url(#linear-gradient-7);}.cls-10{fill:url(#linear-gradient-8);}.cls-11{fill:url(#linear-gradient-9);}.cls-13{fill:url(#linear-gradient-10);}.cls-14{fill:url(#Shorts_gradient);}.cls-15{fill:url(#Shorts_gradient-2);}.cls-16{fill:url(#linear-gradient-11);}.cls-17{fill:url(#Socks);}.cls-18{fill:url(#Socks-2);}.cls-19{fill:url(#linear-gradient-12);}.cls-20{fill:url(#Hair);}.cls-21{fill:url(#linear-gradient-13);}.cls-22{fill:#c69c6d;}.cls-23{fill:url(#linear-gradient-14);}.cls-24{fill:url(#linear-gradient-15);}.cls-25{fill:#c1272d;}.cls-26{fill:url(#Shorts);}.cls-27{fill:url(#linear-gradient-16);}.cls-28{fill:url(#linear-gradient-17);}.cls-29{fill:url(#linear-gradient-18);}.cls-30{fill:url(#linear-gradient-19);}.cls-31{fill:url(#Tshirt);}.cls-32{fill:url(#linear-gradient-20);}.cls-33{fill:url(#linear-gradient-21);}.cls-34,.cls-35{opacity:0.6;}.cls-34{fill:url(#linear-gradient-22);}.cls-35{fill:url(#linear-gradient-23);}.cls-36{fill:url(#linear-gradient-24);}.cls-37{fill:url(#linear-gradient-25);}.cls-38{fill:url(#linear-gradient-26);}.cls-39{fill:url(#linear-gradient-27);}.cls-40{fill:url(#linear-gradient-28);}.cls-41{fill:url(#linear-gradient-29);}.cls-42{fill:url(#linear-gradient-30);}.cls-43{fill:url(#linear-gradient-31);}.cls-44{fill:url(#linear-gradient-32);}</style><linearGradient id="linear-gradient" x1="-277.64" y1="163.78" x2="-274.37" y2="163.38" gradientTransform="matrix(0.98, 0.21, -0.23, 1.1, 333.88, -79.89)" gradientUnits="userSpaceOnUse"><stop offset="0" stop-color="#ff9cb0"/><stop offset="0.06" stop-color="#fd8ea4"/><stop offset="0.24" stop-color="#fa6c89"/><stop offset="0.42" stop-color="#f75173"/><stop offset="0.61" stop-color="#f53e64"/><stop offset="0.8" stop-color="#f3335b"/><stop offset="1" stop-color="#f32f58"/></linearGradient><linearGradient id="linear-gradient-2" x1="-275.16" y1="161.16" x2="-274.76" y2="163.85" gradientTransform="matrix(0.98, 0.21, -0.23, 1.1, 333.88, -79.89)" gradientUnits="userSpaceOnUse"><stop offset="0" stop-color="#fff" stop-opacity="0"/><stop offset="1" stop-color="#763a4a"/></linearGradient><linearGradient id="linear-gradient-3" x1="588.9" y1="40.32" x2="592.17" y2="39.92" gradientTransform="matrix(-1, 0, 0, 1, 636.68, 0)" gradientUnits="userSpaceOnUse"><stop offset="0" stop-color="#f32f58"/><stop offset="1" stop-color="#ff9cb0"/></linearGradient><linearGradient id="linear-gradient-4" x1="591.38" y1="37.7" x2="591.78" y2="40.39" gradientTransform="matrix(-1, 0, 0, 1, 636.68, 0)" gradientUnits="userSpaceOnUse"><stop offset="0" stop-color="#763a4a"/><stop offset="0.16" stop-color="#834d5b" stop-opacity="0.9"/><stop offset="0.44" stop-color="#a6808a" stop-opacity="0.65"/><stop offset="0.81" stop-color="#dfd1d5" stop-opacity="0.23"/><stop offset="1" stop-color="#fff" stop-opacity="0"/></linearGradient><linearGradient id="linear-gradient-5" x1="597.24" y1="39.49" x2="577.37" y2="63.18" gradientTransform="matrix(-1, 0, 0, 1, 636.68, 0)" gradientUnits="userSpaceOnUse"><stop offset="0" stop-color="#d9988f"/><stop offset="0.02" stop-color="#dca097" stop-opacity="0.93"/><stop offset="0.16" stop-color="#ebc8c3" stop-opacity="0.53"/><stop offset="0.27" stop-color="#f6e6e3" stop-opacity="0.25"/><stop offset="0.35" stop-color="#fcf8f7" stop-opacity="0.07"/><stop offset="0.39" stop-color="#fff" stop-opacity="0"/></linearGradient><linearGradient id="linear-gradient-6" x1="591.59" y1="54.2" x2="582.56" y2="48.11" gradientTransform="matrix(-1, 0, 0, 1, 636.68, 0)" gradientUnits="userSpaceOnUse"><stop offset="0" stop-color="#d9988f"/><stop offset="0.02" stop-color="#db9d94" stop-opacity="0.95"/><stop offset="0.17" stop-color="#e6bab4" stop-opacity="0.67"/><stop offset="0.32" stop-color="#efd3cf" stop-opacity="0.43"/><stop offset="0.46" stop-color="#f6e6e4" stop-opacity="0.24"/><stop offset="0.58" stop-color="#fbf4f3" stop-opacity="0.11"/><stop offset="0.68" stop-color="#fefcfc" stop-opacity="0.03"/><stop offset="0.76" stop-color="#fff" stop-opacity="0"/></linearGradient><linearGradient id="linear-gradient-7" x1="615.81" y1="49.5" x2="620.07" y2="42.41" gradientTransform="matrix(-1, 0, 0, 1, 636.68, 0)" gradientUnits="userSpaceOnUse"><stop offset="0" stop-color="#fff" stop-opacity="0"/><stop offset="0.18" stop-color="#f5e5e2" stop-opacity="0.26"/><stop offset="0.39" stop-color="#ebcac5" stop-opacity="0.52"/><stop offset="0.59" stop-color="#e3b4ae" stop-opacity="0.73"/><stop offset="0.76" stop-color="#dea59d" stop-opacity="0.88"/><stop offset="0.9" stop-color="#da9b93" stop-opacity="0.97"/><stop offset="1" stop-color="#d9988f"/></linearGradient><linearGradient id="linear-gradient-8" x1="626.1" y1="54.48" x2="608.49" y2="39.7" gradientTransform="matrix(-1, 0, 0, 1, 636.68, 0)" gradientUnits="userSpaceOnUse"><stop offset="0.54" stop-color="#fff" stop-opacity="0"/><stop offset="0.62" stop-color="#f5e5e2" stop-opacity="0.26"/><stop offset="0.72" stop-color="#ebcac5" stop-opacity="0.52"/><stop offset="0.81" stop-color="#e3b4ae" stop-opacity="0.73"/><stop offset="0.89" stop-color="#dea59d" stop-opacity="0.88"/><stop offset="0.95" stop-color="#da9b93" stop-opacity="0.97"/><stop offset="1" stop-color="#d9988f"/></linearGradient><linearGradient id="linear-gradient-9" x1="588.03" y1="37.62" x2="616.89" y2="37.62" gradientTransform="matrix(-1, 0, 0, 1, 636.68, 0)" xlink:href="#linear-gradient"/><linearGradient id="linear-gradient-10" x1="602.46" y1="29.23" x2="602.46" y2="46.01" gradientTransform="matrix(-1, 0, 0, 1, 636.68, 0)" gradientUnits="userSpaceOnUse"><stop offset="0" stop-color="#763a4a"/><stop offset="0.06" stop-color="#834d5b" stop-opacity="0.9"/><stop offset="0.16" stop-color="#a6808a" stop-opacity="0.65"/><stop offset="0.29" stop-color="#dfd1d5" stop-opacity="0.23"/><stop offset="0.36" stop-color="#fff" stop-opacity="0"/></linearGradient><linearGradient id="Shorts_gradient" x1="574.71" y1="68.73" x2="584.8" y2="68.73" gradientTransform="matrix(-1, 0, 0, 1, 636.68, 0)" xlink:href="#linear-gradient"/><linearGradient id="Shorts_gradient-2" x1="625.5" y1="54.09" x2="636.68" y2="54.09" gradientTransform="matrix(-1, 0, 0, 1, 636.68, 0)" xlink:href="#linear-gradient"/><linearGradient id="linear-gradient-11" x1="604.06" y1="35.58" x2="613.89" y2="43.54" gradientTransform="matrix(-1, 0, 0, 1, 636.68, 0)" gradientUnits="userSpaceOnUse"><stop offset="0.42" stop-color="#ff7bac" stop-opacity="0"/><stop offset="0.95" stop-color="#ff7bac"/></linearGradient><linearGradient id="Socks" x1="580.19" y1="64.85" x2="584.27" y2="64.85" gradientTransform="matrix(-1, 0, 0, 1, 636.68, 0)" gradientUnits="userSpaceOnUse"><stop offset="0" stop-color="#eff5ff"/><stop offset="1" stop-color="#aed2f3"/></linearGradient><linearGradient id="Socks-2" x1="624.12" y1="51.55" x2="629.52" y2="51.55" xlink:href="#Socks"/><linearGradient id="linear-gradient-12" x1="595.16" y1="9.45" x2="594.41" y2="13.68" gradientTransform="matrix(-1, 0, 0, 1, 636.68, 0)" gradientUnits="userSpaceOnUse"><stop offset="0" stop-color="#d9988f"/><stop offset="0.2" stop-color="#d99990" stop-opacity="0.99"/><stop offset="0.34" stop-color="#db9e95" stop-opacity="0.94"/><stop offset="0.47" stop-color="#dea59d" stop-opacity="0.87"/><stop offset="0.58" stop-color="#e2afa9" stop-opacity="0.77"/><stop offset="0.69" stop-color="#e7bdb7" stop-opacity="0.64"/><stop offset="0.79" stop-color="#edcec9" stop-opacity="0.48"/><stop offset="0.88" stop-color="#f4e1df" stop-opacity="0.29"/><stop offset="0.97" stop-color="#fcf7f7" stop-opacity="0.07"/><stop offset="1" stop-color="#fff" stop-opacity="0"/></linearGradient><linearGradient id="Hair" x1="587.37" y1="4.15" x2="598.41" y2="4.15" gradientTransform="matrix(-1, 0, 0, 1, 636.68, 0)" gradientUnits="userSpaceOnUse"><stop offset="0" stop-color="#272438"/><stop offset="1" stop-color="#304260"/></linearGradient><linearGradient id="linear-gradient-13" x1="588.18" y1="7.46" x2="590.57" y2="3.63" gradientTransform="matrix(-1, 0, 0, 1, 636.68, 0)" gradientUnits="userSpaceOnUse"><stop offset="0.09" stop-color="#304260"/><stop offset="1" stop-color="#272438"/></linearGradient><linearGradient id="linear-gradient-14" x1="577.2" y1="31.77" x2="577.73" y2="32.61" gradientTransform="matrix(-1, 0, 0, 1, 636.68, 0)" gradientUnits="userSpaceOnUse"><stop offset="1" stop-color="#d9988f"/><stop offset="1" stop-color="#d99990" stop-opacity="0.99"/><stop offset="1" stop-color="#db9c93" stop-opacity="0.96"/><stop offset="1" stop-color="#dda29a" stop-opacity="0.91"/><stop offset="1" stop-color="#e0aaa2" stop-opacity="0.83"/><stop offset="1" stop-color="#e3b4ae" stop-opacity="0.73"/><stop offset="1" stop-color="#e8c1bc" stop-opacity="0.6"/><stop offset="1" stop-color="#eed1cc" stop-opacity="0.45"/><stop offset="1" stop-color="#f4e2e0" stop-opacity="0.28"/><stop offset="1" stop-color="#fcf6f5" stop-opacity="0.09"/><stop offset="1" stop-color="#fff" stop-opacity="0"/></linearGradient><linearGradient id="linear-gradient-15" x1="571.51" y1="31.65" x2="576.03" y2="34.26" gradientTransform="matrix(-1, 0, 0, 1, 636.68, 0)" gradientUnits="userSpaceOnUse"><stop offset="0" stop-color="#a67c52"/><stop offset="0.01" stop-color="#a77e54" stop-opacity="0.99"/><stop offset="0.3" stop-color="#ccb59d" stop-opacity="0.57"/><stop offset="0.55" stop-color="#e8ddd2" stop-opacity="0.26"/><stop offset="0.73" stop-color="#f9f6f3" stop-opacity="0.07"/><stop offset="0.83" stop-color="#fff" stop-opacity="0"/></linearGradient><linearGradient id="Shorts" x1="574.55" y1="35.07" x2="573.23" y2="31.44" xlink:href="#linear-gradient-4"/><linearGradient id="linear-gradient-16" x1="583.97" y1="31.4" x2="581.61" y2="24.91" gradientTransform="matrix(-1, 0, 0, 1, 636.68, 0)" gradientUnits="userSpaceOnUse"><stop offset="0" stop-color="#d9988f"/><stop offset="0.1" stop-color="#db9d95" stop-opacity="0.95"/><stop offset="0.27" stop-color="#e0aca4" stop-opacity="0.81"/><stop offset="0.5" stop-color="#e9c3bd" stop-opacity="0.59"/><stop offset="0.77" stop-color="#f4e2e0" stop-opacity="0.28"/><stop offset="1" stop-color="#fff" stop-opacity="0"/></linearGradient><linearGradient id="linear-gradient-17" x1="591.32" y1="28.77" x2="575.18" y2="28.77" gradientTransform="matrix(-1, 0, 0, 1, 636.68, 0)" gradientUnits="userSpaceOnUse"><stop offset="0" stop-color="#d9988f"/><stop offset="0.04" stop-color="#db9d95" stop-opacity="0.95"/><stop offset="0.12" stop-color="#e0aca4" stop-opacity="0.81"/><stop offset="0.21" stop-color="#e9c3bd" stop-opacity="0.59"/><stop offset="0.33" stop-color="#f4e2e0" stop-opacity="0.28"/><stop offset="0.43" stop-color="#fff" stop-opacity="0"/></linearGradient><linearGradient id="linear-gradient-18" x1="608.31" y1="23.41" x2="607.65" y2="22.88" gradientTransform="matrix(-1, 0, 0, 1, 636.68, 0)" gradientUnits="userSpaceOnUse"><stop offset="0" stop-color="#7adeee"/><stop offset="0" stop-color="#02a4d8"/></linearGradient><linearGradient id="linear-gradient-19" x1="608" y1="23.7" x2="608.23" y2="22.38" gradientTransform="matrix(-1, 0, 0, 1, 636.68, 0)" gradientUnits="userSpaceOnUse"><stop offset="0" stop-color="#8d98ba"/><stop offset="0.17" stop-color="#8f9abb" stop-opacity="0.98"/><stop offset="0.31" stop-color="#96a0bf" stop-opacity="0.92"/><stop offset="0.45" stop-color="#a1aac6" stop-opacity="0.82"/><stop offset="0.59" stop-color="#b1b8d0" stop-opacity="0.69"/><stop offset="0.72" stop-color="#c5cadc" stop-opacity="0.51"/><stop offset="0.86" stop-color="#dee1eb" stop-opacity="0.29"/><stop offset="0.98" stop-color="#fbfbfc" stop-opacity="0.04"/><stop offset="1" stop-color="#fff" stop-opacity="0"/></linearGradient><linearGradient id="Tshirt" x1="585.57" y1="22.16" x2="611.17" y2="22.16" gradientTransform="matrix(-1, 0, 0, 1, 636.68, 0)" gradientUnits="userSpaceOnUse"><stop offset="0" stop-color="#7adeee"/><stop offset="1" stop-color="#02a4d8"/></linearGradient><linearGradient id="linear-gradient-20" x1="604.65" y1="36.53" x2="602.85" y2="36.53" gradientTransform="matrix(-1, 0, 0, 1, 636.68, 0)" gradientUnits="userSpaceOnUse"><stop offset="0.03" stop-color="#d9988f"/><stop offset="0.4" stop-color="#d99990" stop-opacity="0.99"/><stop offset="0.54" stop-color="#db9c93" stop-opacity="0.96"/><stop offset="0.63" stop-color="#dda29a" stop-opacity="0.91"/><stop offset="0.71" stop-color="#e0aaa2" stop-opacity="0.83"/><stop offset="0.78" stop-color="#e3b4ae" stop-opacity="0.73"/><stop offset="0.84" stop-color="#e8c1bc" stop-opacity="0.6"/><stop offset="0.89" stop-color="#eed1cc" stop-opacity="0.45"/><stop offset="0.94" stop-color="#f4e2e0" stop-opacity="0.28"/><stop offset="0.98" stop-color="#fcf6f5" stop-opacity="0.09"/><stop offset="1" stop-color="#fff" stop-opacity="0"/></linearGradient><linearGradient id="linear-gradient-21" x1="607.11" y1="38.3" x2="610.46" y2="19.29" gradientTransform="matrix(-1, 0, 0, 1, 636.68, 0)" gradientUnits="userSpaceOnUse"><stop offset="0.72" stop-color="#fff" stop-opacity="0"/><stop offset="0.73" stop-color="#fefbfb" stop-opacity="0.03"/><stop offset="0.83" stop-color="#eed1cd" stop-opacity="0.44"/><stop offset="0.91" stop-color="#e3b2ac" stop-opacity="0.74"/><stop offset="0.97" stop-color="#dc9f97" stop-opacity="0.93"/><stop offset="1" stop-color="#d9988f"/></linearGradient><linearGradient id="linear-gradient-22" x1="608.8" y1="21.9" x2="608.52" y2="37.89" gradientTransform="matrix(-1, 0, 0, 1, 636.68, 0)" gradientUnits="userSpaceOnUse"><stop offset="0" stop-color="#fff" stop-opacity="0"/><stop offset="0.37" stop-color="#fffefe" stop-opacity="0.01"/><stop offset="0.51" stop-color="#fdfbfb" stop-opacity="0.04"/><stop offset="0.61" stop-color="#fbf5f4" stop-opacity="0.09"/><stop offset="0.68" stop-color="#f8edec" stop-opacity="0.17"/><stop offset="0.75" stop-color="#f5e3e0" stop-opacity="0.27"/><stop offset="0.81" stop-color="#f0d6d2" stop-opacity="0.4"/><stop offset="0.86" stop-color="#eac6c2" stop-opacity="0.55"/><stop offset="0.91" stop-color="#e4b5ae" stop-opacity="0.72"/><stop offset="0.96" stop-color="#dca199" stop-opacity="0.91"/><stop offset="0.97" stop-color="#d9988f"/></linearGradient><linearGradient id="linear-gradient-23" x1="606.33" y1="34.88" x2="606.64" y2="31.32" gradientTransform="matrix(-1, 0, 0, 1, 636.68, 0)" gradientUnits="userSpaceOnUse"><stop offset="0" stop-color="#d9988f"/><stop offset="0.11" stop-color="#dca098" stop-opacity="0.92"/><stop offset="0.33" stop-color="#e3b4ae" stop-opacity="0.73"/><stop offset="0.64" stop-color="#f0d5d2" stop-opacity="0.4"/><stop offset="1" stop-color="#fff" stop-opacity="0"/></linearGradient><linearGradient id="linear-gradient-24" x1="603.3" y1="36.17" x2="604.81" y2="35.81" gradientTransform="matrix(-1, 0, 0, 1, 636.68, 0)" gradientUnits="userSpaceOnUse"><stop offset="0.29" stop-color="#fff" stop-opacity="0"/><stop offset="0.51" stop-color="#f2dad7" stop-opacity="0.35"/><stop offset="0.75" stop-color="#e4b7b1" stop-opacity="0.7"/><stop offset="0.92" stop-color="#dca198" stop-opacity="0.92"/><stop offset="1" stop-color="#d9988f"/></linearGradient><linearGradient id="linear-gradient-25" x1="604.7" y1="36" x2="606.08" y2="35.69" xlink:href="#linear-gradient-24"/><linearGradient id="linear-gradient-26" x1="606.02" y1="35.88" x2="607.4" y2="35.56" xlink:href="#linear-gradient-24"/><linearGradient id="linear-gradient-27" x1="607.32" y1="35.78" x2="608.85" y2="35.43" xlink:href="#linear-gradient-24"/><linearGradient id="linear-gradient-28" x1="604.86" y1="36.7" x2="604.87" y2="36.59" gradientTransform="matrix(-1, 0, 0, 1, 636.68, 0)" gradientUnits="userSpaceOnUse"><stop offset="0" stop-color="#d9988f"/><stop offset="0.08" stop-color="#da9a91" stop-opacity="0.98"/><stop offset="0.17" stop-color="#dca098" stop-opacity="0.92"/><stop offset="0.26" stop-color="#e0aba4" stop-opacity="0.82"/><stop offset="0.36" stop-color="#e5bab3" stop-opacity="0.67"/><stop offset="0.46" stop-color="#ecccc8" stop-opacity="0.49"/><stop offset="0.55" stop-color="#f5e3e1" stop-opacity="0.27"/><stop offset="0.65" stop-color="#fffefe" stop-opacity="0.01"/><stop offset="0.66" stop-color="#fff" stop-opacity="0"/></linearGradient><linearGradient id="linear-gradient-29" x1="606.08" y1="26.63" x2="612.19" y2="33.91" gradientTransform="matrix(-1, 0, 0, 1, 636.68, 0)" gradientUnits="userSpaceOnUse"><stop offset="0" stop-color="#d9988f"/><stop offset="0.01" stop-color="#db9e95" stop-opacity="0.94"/><stop offset="0.05" stop-color="#e5b7b1" stop-opacity="0.7"/><stop offset="0.09" stop-color="#edcdc9" stop-opacity="0.48"/><stop offset="0.14" stop-color="#f3dfdc" stop-opacity="0.31"/><stop offset="0.18" stop-color="#f8edec" stop-opacity="0.17"/><stop offset="0.22" stop-color="#fcf7f6" stop-opacity="0.08"/><stop offset="0.26" stop-color="#fefdfd" stop-opacity="0.02"/><stop offset="0.3" stop-color="#fff" stop-opacity="0"/></linearGradient><linearGradient id="linear-gradient-30" x1="612.05" y1="31.22" x2="605.39" y2="27.22" gradientTransform="matrix(-1, 0, 0, 1, 636.68, 0)" gradientUnits="userSpaceOnUse"><stop offset="0" stop-color="#d9988f"/><stop offset="0.11" stop-color="#e2b0a9" stop-opacity="0.77"/><stop offset="0.29" stop-color="#eed1cd" stop-opacity="0.44"/><stop offset="0.43" stop-color="#f7eae8" stop-opacity="0.2"/><stop offset="0.54" stop-color="#fdf9f9" stop-opacity="0.06"/><stop offset="0.6" stop-color="#fff" stop-opacity="0"/></linearGradient><linearGradient id="linear-gradient-31" x1="608.67" y1="19.42" x2="608.67" y2="37.82" gradientTransform="matrix(-1, 0, 0, 1, 636.68, 0)" gradientUnits="userSpaceOnUse"><stop offset="0" stop-color="#d9988f"/><stop offset="0.01" stop-color="#dca098" stop-opacity="0.92"/><stop offset="0.05" stop-color="#e4b6b0" stop-opacity="0.71"/><stop offset="0.09" stop-color="#ebcac5" stop-opacity="0.52"/><stop offset="0.13" stop-color="#f1dad7" stop-opacity="0.36"/><stop offset="0.18" stop-color="#f6e8e6" stop-opacity="0.23"/><stop offset="0.23" stop-color="#faf2f1" stop-opacity="0.13"/><stop offset="0.28" stop-color="#fdf9f9" stop-opacity="0.05"/><stop offset="0.34" stop-color="#fffefe" stop-opacity="0.01"/><stop offset="0.43" stop-color="#fff" stop-opacity="0"/></linearGradient><linearGradient id="linear-gradient-32" x1="584.69" y1="19.18" x2="592.3" y2="23.57" gradientTransform="matrix(-1, 0, 0, 1, 636.68, 0)" gradientUnits="userSpaceOnUse"><stop offset="0.17" stop-color="#fff" stop-opacity="0"/><stop offset="0.45" stop-color="#9cdbf0" stop-opacity="0.39"/><stop offset="0.72" stop-color="#49bee3" stop-opacity="0.72"/><stop offset="0.91" stop-color="#16abdb" stop-opacity="0.92"/><stop offset="1" stop-color="#02a4d8"/></linearGradient></defs><title>Asset 7tt_player</title><g class="cls-1"><g id="Layer_2" data-name="Layer 2"><g id="Badminton"><path class="cls-2" d="M23.94,42.51c.76.94,5.37,4.78,5.74,3.39s1.7-4.43-.76-5.81S21.82,39.89,23.94,42.51Z"/><path class="cls-3" d="M23.94,42.51c.76.94,5.37,4.78,5.74,3.39s1.7-4.43-.76-5.81S21.82,39.89,23.94,42.51Z"/><path class="cls-4" d="M47.84,40.27c-.94.68-6.25,3.17-6.32,1.89s-.74-4.17,2-4.91S50.46,38.39,47.84,40.27Z"/><path class="cls-5" d="M47.84,40.27c-.94.68-6.25,3.17-6.32,1.89s-.74-4.17,2-4.91S50.46,38.39,47.84,40.27Z"/><path class="cls-6" d="M53.25,66.32,56,65.95l0-2.77a1.52,1.52,0,0,1-.14-.52c-.37-2.71-.65-5.43-1.13-8.12a27.56,27.56,0,0,0-1.25-3.75c-.16-.48-.26-1-.41-1.47-.31-1-.58-1.95-1-2.88s-1-1.92-1.39-2.93a14.32,14.32,0,0,0-3.31-4.79l-4.33-2.27-2.66,2.76-1,2.48.83,1.73.28,1.49.34.61c.5-.17.72.22,1.13.5a22.77,22.77,0,0,0,3.24,1.68c1,.64,1.74,1.14,2.6,1.72a.77.77,0,0,1,.27.33,9.78,9.78,0,0,1,1.2,3.94,6.09,6.09,0,0,0,1.79,4.42,2.62,2.62,0,0,1,.63,1.17,47.86,47.86,0,0,1,1,5.33Z"/><path class="cls-7" d="M53.25,66.32,56,65.95l0-2.77a1.52,1.52,0,0,1-.14-.52c-.37-2.71-.65-5.43-1.13-8.12a27.56,27.56,0,0,0-1.25-3.75c-.16-.48-.26-1-.41-1.47-.31-1-.58-1.95-1-2.88s-1-1.92-1.39-2.93a14.32,14.32,0,0,0-3.31-4.79l-4.33-2.27-2.66,2.76-1,2.48.83,1.73.28,1.49.34.61c.5-.17.72.22,1.13.5a22.77,22.77,0,0,0,3.24,1.68c1,.64,1.74,1.14,2.6,1.72a.77.77,0,0,1,.27.33,9.78,9.78,0,0,1,1.2,3.94,6.09,6.09,0,0,0,1.79,4.42,2.62,2.62,0,0,1,.63,1.17,47.86,47.86,0,0,1,1,5.33Z"/><path class="cls-8" d="M53.25,66.32,56,65.95l0-2.77a1.52,1.52,0,0,1-.14-.52c-.37-2.71-.65-5.43-1.13-8.12a27.56,27.56,0,0,0-1.25-3.75c-.16-.48-.26-1-.41-1.47-.31-1-.58-1.95-1-2.88s-1-1.92-1.39-2.93a14.32,14.32,0,0,0-3.31-4.79l-4.33-2.27-2.66,2.76-1,2.48.83,1.73.28,1.49.34.61c.5-.17.72.22,1.13.5a22.77,22.77,0,0,0,3.24,1.68c1,.64,1.74,1.14,2.6,1.72a.77.77,0,0,1,.27.33,9.78,9.78,0,0,1,1.2,3.94,6.09,6.09,0,0,0,1.79,4.42,2.62,2.62,0,0,1,.63,1.17,47.86,47.86,0,0,1,1,5.33Z"/><path class="cls-6" d="M10.79,49.25l.75-.6c.92-.77,1.84-1.56,2.77-2.32a3.6,3.6,0,0,1,2.14-.8A1.77,1.77,0,0,0,17.58,45c1.09-1.34,2.1-2.74,3.14-4.11l4.38-3.54,4.32,3.86-1.5,4-.36.2C24.68,47,22,49.13,18.85,50.3a2,2,0,0,1-1.95.61c-.56,0-.58-.23-1.18-.07a13.69,13.69,0,0,0-4,1.71l-2,.85-1.29-2.3,2.17-1.67.48-.37"/><path class="cls-9" d="M10.79,49.25l.75-.6c.92-.77,1.84-1.56,2.77-2.32a3.6,3.6,0,0,1,2.14-.8A1.77,1.77,0,0,0,17.58,45c1.09-1.34,2.1-2.74,3.14-4.11l4.38-3.54,4.32,3.86-1.5,4-.36.2C24.68,47,22,49.13,18.85,50.3a2,2,0,0,1-1.95.61c-.56,0-.58-.23-1.18-.07a13.69,13.69,0,0,0-4,1.71l-2,.85-1.29-2.3,2.17-1.67.48-.37"/><path class="cls-10" d="M10.79,49.25l.75-.6c.92-.77,1.84-1.56,2.77-2.32a3.6,3.6,0,0,1,2.14-.8A1.77,1.77,0,0,0,17.58,45c1.09-1.34,2.1-2.74,3.14-4.11l4.38-3.54,4.32,3.86-1.5,4-.36.2C24.68,47,22,49.13,18.85,50.3a2,2,0,0,1-1.95.61c-.56,0-.58-.23-1.18-.07a13.69,13.69,0,0,0-4,1.71l-2,.85-1.29-2.3,2.17-1.67.48-.37"/><path class="cls-11" d="M28.45,30.44l5-1.2,10.26.51,1.13,2.84a28.71,28.71,0,0,0,2.31,3.84c.61.65,2.3,2.9,1.06,2.84C45.57,41,45,40.83,43.87,41.91s-.94.75-1.66,1.48-1.31,2-1.69,1.86C39.41,45.63,39,45,38.28,44c-.55-.75-1.17-1.29-1.73-2-.35-.46-.25-.63-1-.59-.9.05-2.05,1.42-2.69,2a4.12,4.12,0,0,1-2.28,1.78c-1.34.69-.7,1.38-2.44,0A4.41,4.41,0,0,0,26.42,43c-1.2-.63-2.34-1.52-3.48-1.46s-1.65-.07-2.21-.74c-.26-.31-1-.75-.93-1.1s.42-.07.69-.17.27-.48.83-.74a11.52,11.52,0,0,0,2.33-1.63,3.1,3.1,0,0,0,1-1.25A4.48,4.48,0,0,1,25.91,34c.12-.21.45-.26.33-.47a1,1,0,0,1,.18-1.43l.52-.47Z"/><g class="cls-12"><path class="cls-13" d="M28.45,30.44l5-1.2,10.26.51,1.13,2.84a28.71,28.71,0,0,0,2.31,3.84c.61.65,2.3,2.9,1.06,2.84C45.57,41,45,40.83,43.87,41.91s-.94.75-1.66,1.48-1.31,2-1.69,1.86C39.41,45.63,39,45,38.28,44c-.55-.75-1.17-1.29-1.73-2-.35-.46-.25-.63-1-.59-.9.05-2.05,1.42-2.69,2a4.12,4.12,0,0,1-2.28,1.78c-1.34.69-.7,1.38-2.44,0A4.41,4.41,0,0,0,26.42,43c-1.2-.63-2.34-1.52-3.48-1.46s-1.65-.07-2.21-.74c-.26-.31-1-.75-.93-1.1s.42-.07.69-.17.27-.48.83-.74a11.52,11.52,0,0,0,2.33-1.63,3.1,3.1,0,0,0,1-1.25A4.48,4.48,0,0,1,25.91,34c.12-.21.45-.26.33-.47a1,1,0,0,1,.18-1.43l.52-.47Z"/></g><path class="cls-14" d="M52.92,65.45l.19.16.35-1.24,1,0,1.68-.62.2,1.23s-.06-.59.12-.37c.5.6.78,2,1.21,2.65.62.87,1,.9,1.9,1.89a17.51,17.51,0,0,1,2.14,2.49c.6.95-.15,1.64-1.21,2a3.6,3.6,0,0,1-2.59-.5,30,30,0,0,1-2.81-2,2.67,2.67,0,0,0-1.57-.56A2.13,2.13,0,0,1,52,67.8c.29-.95.26-3.12.69-2.7Z"/><path class="cls-15" d="M10.18,50.27l.25,1.28.74,1.26c-.32.15-.54.53-.82.79-.48.44-.9,1.09-1.47,1.26a6.44,6.44,0,0,0-3.36,2.33,6.9,6.9,0,0,1-1.09,1.2,3,3,0,0,1-3.16.48C-.09,58.27-.4,56.66.55,55.3a8.85,8.85,0,0,1,4.79-3.89,2,2,0,0,0,1-.9,2.89,2.89,0,0,1,3.91-1.08Z"/><g class="cls-12"><path class="cls-16" d="M28.45,30.44l-1.51,1.19-.52.47a1,1,0,0,0-.18,1.43c.12.21-.21.26-.33.47a4.47,4.47,0,0,0-1.23,1.9,3.1,3.1,0,0,1-1,1.25,11.53,11.53,0,0,1-2.33,1.63c-.57.26-.5.61-.83.74s-.66-.13-.69.17.67.79.93,1.1c.56.66,1.07.8,2.21.74s2.28.82,3.48,1.46a4.41,4.41,0,0,1,1.74,2.26c1.74,1.36,1.1.66,2.44,0a4.13,4.13,0,0,0,2.28-1.78c.64-.61,1.79-2,2.69-2a1.88,1.88,0,0,1,.39,0l-.17-.15L28.45,30.54"/></g><path class="cls-17" d="M56.34,63.39c0-.83-1.64-.31-3.72.38,0,0-.25,0-.21.21s.11.55.26,1.12c.06.22.22.79.36.87a4.48,4.48,0,0,0,3,.71c.63-.08.46-1.23.46-1.23S56.37,64.18,56.34,63.39Z"/><path class="cls-18" d="M12.56,52.13a2,2,0,0,1-1.9-2.83c0-.11-.12,0-.38.14A9.13,9.13,0,0,0,9,50.09c-.45.31-.63.38-1,.66,0,0-1.51,1.22-.54,2.48s2.79.28,2.83.27a16.4,16.4,0,0,0,2.24-1.24Z"/><path class="cls-6" d="M45.31,9.24a.5.5,0,0,1,.34.7,1.58,1.58,0,0,0,0,1.16,9.49,9.49,0,0,1,.38,1s.16.45-2.12,1.15-4,1.06-5.41,0,.25-3.25.25-3.25Z"/><path class="cls-19" d="M45.31,9.24a.5.5,0,0,1,.34.7,1.58,1.58,0,0,0,0,1.16,9.49,9.49,0,0,1,.38,1s.16.45-2.12,1.15-4,1.06-5.41,0,.25-3.25.25-3.25Z"/><path class="cls-6" d="M39.91,2.67a10.51,10.51,0,0,0-.85,1.9c-.06.36,0,.93,0,1.27s-.49.68-.58,1.08a19.38,19.38,0,0,0,.06,3.28c.1,1.24.46,2.14,1.77,2.09,2.71-.1,4.16-.48,4.81-1.51s.51-1,.51-1a.71.71,0,0,0,.82.39C47.33,10,47.92,8.38,47.91,8s.1-1.85-.36-1.94A15.05,15.05,0,0,1,45.14,4L43.46,2.61l-1.58-.33-1.6.13Z"/><path class="cls-20" d="M38.28,3c-.08-.4.16-.57.47-.73s.73-.45,1.1-.67A10.91,10.91,0,0,1,41.92.36a5.29,5.29,0,0,1,2-.36,6.94,6.94,0,0,1,2.14.25,2.85,2.85,0,0,1,2.28,2c0,.11.34.22.42.31a2,2,0,0,1,.48,1A5,5,0,0,1,48.41,7c-.12.22-.41.79-.41.79a.86.86,0,0,0-.37-.63.88.88,0,0,0-.65-.2.79.79,0,0,0-.55.39,2.44,2.44,0,0,0-.33.84c0,.11-.48.17-.48.07a9.51,9.51,0,0,1,.11-1,2.34,2.34,0,0,1,.21-.58c-.52-.34-.62-1.12-.75-1.5L45.12,5c-.19-.05-1-.09-1.49-.24-.32-.09-.64-.52-1-.49a2.36,2.36,0,0,1-2-.47c-.55-.48-1-.59-1.25-.47S38.33,3.18,38.28,3Z"/><path class="cls-21" d="M48.35,2.23a1.74,1.74,0,0,1,.42.31,2,2,0,0,1,.48,1A5,5,0,0,1,48.41,7c-.12.22-.41.79-.41.79a.86.86,0,0,0-.37-.63.88.88,0,0,0-.65-.2.79.79,0,0,0-.55.39,2.44,2.44,0,0,0-.33.84c0,.11-.48.17-.48.07a9.51,9.51,0,0,1,.11-1,2.34,2.34,0,0,1,.21-.58c-.45-.33-.58-.6-.75-1.5L45.12,5S48.17,3.9,48.35,2.23Z"/><path class="cls-22" d="M57.78,31a3.83,3.83,0,0,1-.75-.6.54.54,0,0,1,0-.47c.06-.07.23-.38.41-.43a3.64,3.64,0,0,1,1.32.75c.06.13.06,1-.19,1.09S57.78,31,57.78,31Z"/><path class="cls-6" d="M60.15,33.18a.2.2,0,0,1-.18,0,.31.31,0,0,1-.23-.24.46.46,0,0,1,0-.2s.05-.16.05-.16l-.09.17s0,0-.14,0a.43.43,0,0,1-.3-.06.38.38,0,0,1-.16-.29c0-.15-.12-.08-.12-.08a.17.17,0,0,1-.19,0,.55.55,0,0,1-.3-.25.6.6,0,0,1,0-.25c0-.07-.14,0-.14,0l0,0a.23.23,0,0,1-.21,0,.35.35,0,0,1-.12-.26.38.38,0,0,1,0-.18l.53-.08a2.27,2.27,0,0,1,.58.14l.86.58.51.38.09.18-.18.34Z"/><path class="cls-23" d="M60.15,33.18a.2.2,0,0,1-.18,0,.31.31,0,0,1-.23-.24.46.46,0,0,1,0-.2s.05-.16.05-.16l-.09.17s0,0-.14,0a.43.43,0,0,1-.3-.06.38.38,0,0,1-.16-.29c0-.15-.12-.08-.12-.08a.17.17,0,0,1-.19,0,.55.55,0,0,1-.3-.25.6.6,0,0,1,0-.25c0-.07-.14,0-.14,0l0,0a.23.23,0,0,1-.21,0,.35.35,0,0,1-.12-.26.38.38,0,0,1,0-.18l.53-.08a2.27,2.27,0,0,1,.58.14l.86.58.51.38.09.18-.18.34Z"/><path class="cls-22" d="M61.33,30.78a5.32,5.32,0,0,1,3.79,1.6c2.7,2.39,1.66,3.73.41,3.63a7.62,7.62,0,0,1-3.64-1.29,5.85,5.85,0,0,1-1.81-1.53,12.2,12.2,0,0,1-1-1.77C57.92,29.22,61.33,30.78,61.33,30.78Z"/><path class="cls-24" d="M61.33,30.78a5.32,5.32,0,0,1,3.79,1.6c2.7,2.39,1.66,3.73.41,3.63a7.62,7.62,0,0,1-3.64-1.29,5.85,5.85,0,0,1-1.81-1.53,12.2,12.2,0,0,1-1-1.77C57.92,29.22,61.33,30.78,61.33,30.78Z"/><path class="cls-25" d="M61.39,31A4.73,4.73,0,0,1,65,32.55c2.83,2.65,1.58,3.54.39,3.45a7.24,7.24,0,0,1-3.46-1.22,5.91,5.91,0,0,1-2.75-3.1c-.78-1.54.74-.73,1.28-.7.06,0,0,.23,0,.23C60.61,31,61.39,31,61.39,31Z"/><path class="cls-26" d="M61.39,31A4.73,4.73,0,0,1,65,32.55c2.83,2.65,1.58,3.54.39,3.45a7.24,7.24,0,0,1-3.46-1.22,5.91,5.91,0,0,1-2.75-3.1c-.78-1.54.74-.73,1.28-.7.06,0,0,.23,0,.23C60.61,31,61.39,31,61.39,31Z"/><path class="cls-6" d="M59.36,32.83"/><path class="cls-6" d="M58.54,31.7"/><path class="cls-6" d="M60.4,33.22c.06.13.19,1,.47,1.15a.47.47,0,0,0,.62-.19c0-.15,0-.37,0-.59a1.13,1.13,0,0,0-.2-.81c-.12-.17-.2-.3-.37-.54s-.06-.28-.08-.52c-.06-.58.15-.74.3-.84l.12-.07.08,0a11.52,11.52,0,0,0-1.9-2.25c-.85-.59-2.42-1-4-2.14s-5.27-3.27-5.27-3.27l-4.79,1.52A10.07,10.07,0,0,0,48,27.21c1.32.7,2.59.79,5.69,1.3a13,13,0,0,1,3.84,1.42s-.3.4.19,1.26c.22.39.36.6.38.62a7.09,7.09,0,0,0,1.18.84A5.71,5.71,0,0,1,60.4,33.22Z"/><path class="cls-27" d="M60.4,33.22c.06.13.19,1,.47,1.15a.47.47,0,0,0,.62-.19c0-.15,0-.37,0-.59a1.13,1.13,0,0,0-.2-.81c-.12-.17-.2-.3-.37-.54s-.06-.28-.08-.52c-.06-.58.15-.74.3-.84l.12-.07.08,0a11.52,11.52,0,0,0-1.9-2.25c-.85-.59-2.42-1-4-2.14s-5.27-3.27-5.27-3.27l-4.79,1.52A10.07,10.07,0,0,0,48,27.21c1.32.7,2.59.79,5.69,1.3a13,13,0,0,1,3.84,1.42s-.3.4.19,1.26c.22.39.36.6.38.62a7.09,7.09,0,0,0,1.18.84A5.71,5.71,0,0,1,60.4,33.22Z"/><path class="cls-28" d="M60.4,33.22c.06.13.19,1,.47,1.15a.47.47,0,0,0,.62-.19c0-.15,0-.37,0-.59a1.13,1.13,0,0,0-.2-.81c-.12-.17-.2-.3-.37-.54s-.06-.28-.08-.52c-.06-.58.15-.74.3-.84l.12-.07.08,0a11.52,11.52,0,0,0-1.9-2.25c-.85-.59-2.42-1-4-2.14s-5.27-3.27-5.27-3.27l-4.79,1.52A10.07,10.07,0,0,0,48,27.21c1.32.7,2.59.79,5.69,1.3a13,13,0,0,1,3.84,1.42s-.3.4.19,1.26c.22.39.36.6.38.62a7.09,7.09,0,0,0,1.18.84A5.71,5.71,0,0,1,60.4,33.22Z"/><path class="cls-29" d="M29.21,23.61a1.76,1.76,0,0,1-.84-.29A1.3,1.3,0,0,1,28,22.9l.61-.54.52.63Z"/><path class="cls-30" d="M29.21,23.61a1.76,1.76,0,0,1-.84-.29A1.3,1.3,0,0,1,28,22.9l.61-.54.52.63Z"/><path class="cls-31" d="M25.52,19.16l.1,1a2,2,0,0,0,.12.24c.38.67.41,1,2.85,2.47l.62.78.88-.4h0a.27.27,0,0,1,.08.36,5.53,5.53,0,0,0-.9,2.44,2.17,2.17,0,0,1-.61,1.59c-.7,1-1,3.25-1.85,3.8l-.52.47a2.68,2.68,0,0,0-.79,1.71c0,.17.19.26.62.51.07,0,1-.07,1,0a4.9,4.9,0,0,1,3.27-.73c1.71.2,4.7,1.9,7.27-.51,1.06-1,2.36.16,3.72.34a2.58,2.58,0,0,0,2.51-1c1.27-1.22.58-3,.72-4.61A5.53,5.53,0,0,1,45.28,25c.37,1.16,1,1.27,2.37.23.64-.49,3.89-.49,3.41-1.83a5.17,5.17,0,0,1-.37-2.59,14.52,14.52,0,0,1,0-2c.11-1.1.11-2,.17-3.21a4,4,0,0,0-1.35-2.17,9.21,9.21,0,0,0-2.17-1.13A11.31,11.31,0,0,0,46,12.07c-.4.23,0,.25-1,.71-1.61.73-5,1.67-6.51.39s0-2.85.06-3l-2.15.63c-1.66.51-3.19,1-4.76,1.64a3.4,3.4,0,0,0-1.84,1.72A12.2,12.2,0,0,1,28,16.69C27.21,17.56,26.24,18.25,25.52,19.16Z"/><path class="cls-6" d="M33.21,34.61c.79,1.16.66,1.61.52,1.89a.93.93,0,0,0-.1.71c.06.25.33,1.15-.24,1.24-.72.12-1.11-.63-1.18-.76-.34-.59-.07-.88-.07-.88l.45-2.2Z"/><path class="cls-32" d="M33.21,34.61c.79,1.16.66,1.61.52,1.89a.93.93,0,0,0-.1.71c.06.25.33,1.15-.24,1.24-.72.12-1.11-.63-1.18-.76-.34-.59-.07-.88-.07-.88l.45-2.2Z"/><path class="cls-33" d="M28.77,23l-1.28,1a48.24,48.24,0,0,0,2.37,6.37A14.19,14.19,0,0,1,31,32.31c.34.76,2.45,1.42,2.45,2.11v.68s.12.23-.15,1.23-.6,1.55-1.19,1.48-.38-.85-.38-.85a.82.82,0,0,1-1.22.48c-.19-.14-.22-.54-.22-.54s-.23.55-.68.4a.64.64,0,0,1-.48-.72s-.28.54-.73.46-.48-.17-.54-.59a10.35,10.35,0,0,1,0-1.32A2.08,2.08,0,0,1,27,33.7c-.08-.93.23-.83-.06-1.4s-4.48-5.56-4.48-8.16,3-5,3-4.7a3,3,0,0,0,1.14,2.1S27.92,22.38,28.77,23Z"/><path class="cls-6" d="M28.77,23l-1.28,1a48.24,48.24,0,0,0,2.37,6.37A14.19,14.19,0,0,1,31,32.31c.34.76,2.45,1.42,2.45,2.11v.68s.12.23-.15,1.23-.6,1.55-1.19,1.48-.38-.85-.38-.85a.82.82,0,0,1-1.22.48c-.19-.14-.22-.54-.22-.54s-.23.55-.68.4a.64.64,0,0,1-.48-.72s-.28.54-.73.46-.48-.17-.54-.59a10.35,10.35,0,0,1,0-1.32A2.08,2.08,0,0,1,27,33.7c-.08-.93.23-.83-.06-1.4s-4.48-5.56-4.48-8.16,3-5,3-4.7a3,3,0,0,0,1.14,2.1S27.92,22.38,28.77,23Z"/><path class="cls-34" d="M27.49,24a48.24,48.24,0,0,0,2.37,6.37A16.74,16.74,0,0,1,31,32.31c.38.81,2.48,1.4,2.45,2.11,0,.43,0,.68,0,.68s.12.23-.15,1.23-.6,1.55-1.19,1.48-.38-.85-.38-.85a.82.82,0,0,1-1.22.48c-.19-.14-.22-.54-.22-.54s-.23.55-.68.4a.64.64,0,0,1-.48-.72s-.28.54-.73.46-.48-.17-.54-.59a10.35,10.35,0,0,1,0-1.32A2.08,2.08,0,0,1,27,33.7c-.08-.93.23-.83-.06-1.4s-4.48-5.56-4.48-8.16A4.66,4.66,0,0,1,23.12,22C24.16,24.7,27.49,24,27.49,24Z"/><path class="cls-35" d="M30.49,31.28s.31.5.49.86a1.73,1.73,0,0,0,.11.23,4.57,4.57,0,0,0,1.4,1c.41.25.88.48,1,.89,0,0,0,.3,0,.3a.75.75,0,0,0-.64-.44.69.69,0,0,0-.69.29.84.84,0,0,0-.62-.32.56.56,0,0,0-.64.4s-.1-.3-.69-.33a.7.7,0,0,0-.73.41s-.14-.35-.76-.38c-.34,0-.48.26-.63.51s-.18.34-.18.34a2.88,2.88,0,0,1-.41-.38,2,2,0,0,1-.2-.29,1.76,1.76,0,0,1-.23-.6c-.16-1.07.23-1-.1-1.59C28,31.86,29.66,31.5,30.49,31.28Z"/><path class="cls-36" d="M32.16,37.77c.59.07.92-.48,1.19-1.48s.15-1.23.15-1.23v-.46a.73.73,0,0,0-.63-.44.69.69,0,0,0-.69.29s-.07.95-.12,1.26-.28,1.21-.28,1.21h0v0C31.73,37.13,31.65,37.71,32.16,37.77Z"/><path class="cls-37" d="M30.32,36.87s0,.4.22.54A.82.82,0,0,0,31.75,37v0h0S32,36,32,35.72a7.08,7.08,0,0,0,.12-1.26.84.84,0,0,0-.62-.32.56.56,0,0,0-.64.4s-.13.86-.2,1.13S30.32,36.87,30.32,36.87Z"/><path class="cls-38" d="M29.18,36.54a.64.64,0,0,0,.48.72c.45.15.68-.4.68-.4s.3-.89.38-1.2.2-1.13.2-1.13-.1-.3-.69-.33a.7.7,0,0,0-.73.41s-.08.67-.11.89S29.18,36.54,29.18,36.54Z"/><path class="cls-39" d="M27.91,36.41c.06.42.09.51.54.6s.73-.46.73-.46.16-.79.21-1.05.11-.89.11-.89-.14-.35-.76-.38c-.34,0-.48.26-.63.51l-.19.35A10.15,10.15,0,0,0,27.91,36.41Z"/><path class="cls-40" d="M31.77,36.6l.06.09h0Z"/><path class="cls-41" d="M27.49,24a48.24,48.24,0,0,0,2.37,6.37A14.19,14.19,0,0,1,31,32.31c.34.76,2.45,1.42,2.45,2.11v.68s.12.23-.15,1.23-.6,1.55-1.19,1.48-.38-.85-.38-.85a.82.82,0,0,1-1.22.48c-.19-.14-.22-.54-.22-.54s-.23.55-.68.4a.64.64,0,0,1-.48-.72s-.28.54-.73.46-.48-.17-.54-.59a10.35,10.35,0,0,1,0-1.32A2.08,2.08,0,0,1,27,33.7c-.08-.93.23-.83-.06-1.4s-4.48-5.56-4.48-8.16A4.66,4.66,0,0,1,23.12,22C24.16,24.7,27.49,24,27.49,24Z"/><path class="cls-42" d="M28.77,23l-1.28,1a48.24,48.24,0,0,0,2.37,6.37A14.19,14.19,0,0,1,31,32.31c.34.76,2.45,1.42,2.45,2.11v.68s.12.23-.15,1.23-.6,1.55-1.19,1.48-.38-.85-.38-.85a.82.82,0,0,1-1.22.48c-.19-.14-.22-.54-.22-.54s-.23.55-.68.4a.64.64,0,0,1-.48-.72s-.28.54-.73.46-.48-.17-.54-.59a10.35,10.35,0,0,1,0-1.32A2.08,2.08,0,0,1,27,33.7c-.08-.93.23-.83-.06-1.4s-4.48-5.56-4.48-8.16,3-5,3-4.7a3,3,0,0,0,1.14,2.1S27.92,22.38,28.77,23Z"/><path class="cls-43" d="M28.77,23l-1.28,1a48.24,48.24,0,0,0,2.37,6.37A14.19,14.19,0,0,1,31,32.31c.34.76,2.45,1.42,2.45,2.11v.68s.12.23-.15,1.23-.6,1.55-1.19,1.48-.38-.85-.38-.85a.82.82,0,0,1-1.22.48c-.19-.14-.22-.54-.22-.54s-.23.55-.68.4a.64.64,0,0,1-.48-.72s-.28.54-.73.46-.48-.17-.54-.59a10.35,10.35,0,0,1,0-1.32A2.08,2.08,0,0,1,27,33.7c-.08-.93.23-.83-.06-1.4s-4.48-5.56-4.48-8.16,3-5,3-4.7a3,3,0,0,0,1.14,2.1S27.92,22.38,28.77,23Z"/><g class="cls-12"><path class="cls-44" d="M45.3,25c.37,1.16,1,1.27,2.37.23.64-.49,3.89-.49,3.41-1.83a5.17,5.17,0,0,1-.37-2.59,14.52,14.52,0,0,1,0-2c.06-.56.09-1.06.11-1.58S48,17.09,48,17.09a15.86,15.86,0,0,1-1,4.06A29.83,29.83,0,0,1,45.3,25Z"/></g></g></g></g></svg>